<?xml version="1.0" encoding="UTF-8"?>
<svg version="1.1" xmlns="http://www.w3.org/2000/svg" width="1024" height="1024">
<path d="M0 0 C3.25467508 1.60079376 6.25653978 3.40129044 9.30078125 5.37109375 C11.64730022 6.78715512 13.33122267 7.54992116 16 8 C16 8.66 16 9.32 16 10 C18.20235321 11.48299972 18.20235321 11.48299972 21.0625 13 C26.6403189 16.15923468 31.96804025 19.56393321 37.27172852 23.16162109 C40.41891234 25.2919605 43.57726674 27.37723609 46.8203125 29.359375 C62.68562362 39.08522029 62.68562362 39.08522029 64.63012695 46.35620117 C65.99146017 56.08681329 58.13541335 67.83050826 54.125 76.4375 C53.40954071 77.98474156 52.69469285 79.532266 51.98046875 81.08007812 C46.48391949 92.98044499 46.48391949 92.98044499 44.37573242 97.42211914 C43.91787354 98.39656982 43.46001465 99.37102051 42.98828125 100.375 C42.59680908 101.19613281 42.20533691 102.01726562 41.80200195 102.86328125 C40.66452401 105.89378565 40.84781023 108.0043066 42 111 C42.66 111.66 43.32 112.32 44 113 C45.30694142 115.04837934 46.54175109 117.13289132 47.78125 119.22265625 C48.88950195 121.14672928 48.88950195 121.14672928 51 122 C51.8880482 123.6053179 52.77495324 125.21127826 53.65625 126.8203125 C56.80623847 131.92988683 60.75687829 136.75687829 65 141 C66.98821313 141.39764263 68.98944339 141.73775349 71 142 C71.33 141.34 71.66 140.68 72 140 C74.57348633 139.65844727 74.57348633 139.65844727 78.01953125 139.50390625 C83.44978607 139.1908737 88.80489643 138.7211363 94.19921875 138.02734375 C94.89355011 137.93933502 95.58788147 137.85132629 96.30325317 137.76065063 C99.14964792 137.39767765 101.99520106 137.02866015 104.84008789 136.65405273 C128.54371279 133.55055231 128.54371279 133.55055231 134.375 137.25 C142.50733919 144.36042097 144.93092519 158.37740339 148.22949219 168.40722656 C148.99473058 170.73397804 149.76627511 173.05855868 150.5390625 175.3828125 C153.45526592 184.17748276 156.27894765 192.99770172 159.01953125 201.84863281 C159.65947008 203.905488 160.3188117 205.95643511 161 208 C160.01 208 159.02 208 158 208 C157.9175 208.74378906 157.835 209.48757813 157.75 210.25390625 C155.6904551 217.7948441 145.38889391 223.12421995 139 227 C136.84225903 228.2267157 134.66855802 229.41930781 132.48828125 230.60546875 C127.86248934 233.19794553 123.38301145 236.0296762 118.88427734 238.83496094 C116.81304442 240.11559368 114.72946703 241.37462216 112.64453125 242.6328125 C111.17958577 243.52587482 109.71474058 244.41910167 108.25 245.3125 C107.54609131 245.73297607 106.84218262 246.15345215 106.11694336 246.58666992 C102.07017032 248.94198757 102.07017032 248.94198757 100 253 C99.72368042 258.10876425 99.68663335 263.21698266 99.64990234 268.33251953 C99.63333448 270.02406566 99.6060331 271.71554153 99.56787109 273.40673828 C99.51301748 275.85225528 99.49121965 278.29613769 99.4765625 280.7421875 C99.44255844 281.8705452 99.44255844 281.8705452 99.40786743 283.021698 C99.42352527 286.92614241 99.80244321 288.7515758 102.25952148 291.84130859 C104.58565139 293.67361511 106.81409122 295.31324905 109.37109375 296.796875 C110.18562012 297.27600342 111.00014648 297.75513184 111.83935547 298.2487793 C112.69674316 298.74418213 113.55413086 299.23958496 114.4375 299.75 C116.24188592 300.81210417 118.04526786 301.87591579 119.84765625 302.94140625 C120.72824707 303.46105957 121.60883789 303.98071289 122.51611328 304.51611328 C126.976331 307.18067032 131.32665361 310.00266307 135.67578125 312.84375 C138.03449526 314.37372666 140.39910684 315.87135181 142.79296875 317.34375 C143.42348145 317.73602783 144.05399414 318.12830566 144.70361328 318.5324707 C146.44577693 319.61497349 148.19340484 320.68866817 149.94140625 321.76171875 C153.80603618 324.58985789 156.98529366 327.53103711 158.84765625 332.0625 C160.31177055 345.26614899 152.63396234 359.85531583 148.08203125 371.98828125 C146.99516119 374.88790931 145.91893548 377.79133428 144.84375 380.6953125 C144.14645985 382.5653379 143.44856448 384.43513776 142.75 386.3046875 C142.27481934 387.5877327 142.27481934 387.5877327 141.79003906 388.896698 C135.98912238 404.29244805 135.98912238 404.29244805 130 408 C124.29551894 410.5433992 118.74200086 410.22760776 112.625 410.125 C111.60277344 410.11597656 110.58054687 410.10695313 109.52734375 410.09765625 C107.01798478 410.0742043 104.50911664 410.04138355 102 410 C102 409.34 102 408.68 102 408 C101.175 407.95101563 100.35 407.90203125 99.5 407.8515625 C92.92984894 407.42626254 86.45701392 406.83314196 79.9375 405.9375 C72.93483483 404.98723561 66.06043936 404.78238372 59 405 C58.65775391 405.79083984 58.65775391 405.79083984 58.30859375 406.59765625 C56.55883012 409.80990889 54.33404658 412.58615169 52.0625 415.4375 C51.58176025 416.047146 51.10102051 416.65679199 50.60571289 417.28491211 C48.09248335 420.45082259 45.53502098 423.5687652 42.8984375 426.6328125 C42.40206787 427.20974854 41.90569824 427.78668457 41.39428711 428.38110352 C40.445846 429.47577654 39.49121252 430.5651248 38.52954102 431.64819336 C34.79051668 435.84672289 34.79051668 435.84672289 33 441 C33.93096101 444.43588912 35.38371838 447.58723061 36.875 450.8125 C37.29048096 451.74449219 37.70596191 452.67648437 38.1340332 453.63671875 C41.56676257 461.26065467 45.28136046 468.73455121 49.07568359 476.18310547 C50.57581179 479.13185192 52.0542647 482.08638448 53.5 485.0625 C53.9846875 486.04347656 54.469375 487.02445313 54.96875 488.03515625 C56.43545246 492.25192582 56.60895946 496.0030212 55.30078125 500.29296875 C54.97464844 500.91816406 54.64851563 501.54335938 54.3125 502.1875 C53.84263672 503.13689453 53.84263672 503.13689453 53.36328125 504.10546875 C49.39979845 509.61346061 42.59037352 512.88894506 36.9375 516.4375 C31.02679168 520.16662231 25.1235207 523.90251857 19.28125 527.73828125 C18.38156494 528.32875244 17.48187988 528.91922363 16.55493164 529.52758789 C14.84604555 530.65212771 13.13939368 531.78007218 11.43530273 532.91186523 C8.31850874 534.95998853 5.48679561 536.80959755 2.00390625 538.171875 C1.34261719 538.44515625 0.68132812 538.7184375 0 539 C-0.33 539.99 -0.66 540.98 -1 542 C-1.66 542 -2.32 542 -3 542 C-3.99 542.33 -4.98 542.66 -6 543 C-13.2203151 543.70133634 -18.12263838 543.3492476 -24 539 C-25.68421975 537.35107326 -27.3471482 535.68036796 -29 534 C-30.19737542 532.80999356 -31.39648887 531.62173447 -32.59692383 530.43481445 C-36.22811031 526.83912766 -39.85326351 523.23742408 -43.47631836 519.63354492 C-45.04096429 518.07903674 -46.60738863 516.52631663 -48.17553711 514.9753418 C-50.44070392 512.73430019 -52.69946797 510.4869789 -54.95703125 508.23828125 C-55.66318069 507.54245438 -56.36933014 506.8466275 -57.09687805 506.12971497 C-57.74142441 505.48531967 -58.38597076 504.84092438 -59.05004883 504.17700195 C-59.62120926 503.61028275 -60.19236969 503.04356354 -60.78083801 502.45967102 C-62 501 -62 501 -62 499 C-65.8423034 497.55004124 -68.3899085 498.49220852 -72.21484375 499.73046875 C-74.06456787 500.31429321 -74.06456787 500.31429321 -75.95166016 500.90991211 C-76.60193176 501.1188913 -77.25220337 501.32787048 -77.92218018 501.54318237 C-90.79709182 505.65941863 -103.60137382 509.07278127 -117 511 C-117.71978027 511.10892578 -118.43956055 511.21785156 -119.18115234 511.33007812 C-130.85929566 513.02233129 -142.68804682 513.33787191 -154.46786499 513.7237854 C-156.2086316 513.78190492 -157.94923577 513.84517048 -159.68960571 513.91415405 C-171.13965055 514.35180514 -181.74654744 513.61919805 -192.98309326 511.35726929 C-195.10206798 510.98191996 -197.20690241 510.76310941 -199.34814453 510.55395508 C-203.86001338 509.86954336 -205.00672953 508.31686728 -208 505 C-209.66392045 504.32650839 -211.33032028 503.6590841 -213 503 C-216 499.68965517 -216 499.68965517 -216 497 C-216.99 496.67 -217.98 496.34 -219 496 C-226.88389867 485.02575352 -229.16224669 475.380365 -228 462 C-225.57659399 450.53012951 -219.19984877 441.19984877 -211 433 C-209.34750513 432.29894157 -207.67632417 431.64199649 -206 431 C-205.3709375 430.68804688 -204.741875 430.37609375 -204.09375 430.0546875 C-192.42364721 424.34648505 -180.24728073 424.81556058 -167.57339478 425.02215576 C-131.72054947 425.54606408 -94.49631992 421.83053717 -64 401 C-62.48792969 400.01966797 -62.48792969 400.01966797 -60.9453125 399.01953125 C-50.69073453 392.20325295 -41.46628715 384.37785164 -33.59765625 374.8515625 C-32 373 -32 373 -29.56640625 370.5859375 C-6.4718879 347.31566178 4.02918249 311.07918727 5 279 C5.03996094 278.2059375 5.07992187 277.411875 5.12109375 276.59375 C6.02955432 245.38545756 -5.25722277 214.09915117 -21.875 188.0625 C-22.2563208 187.46493896 -22.6376416 186.86737793 -23.03051758 186.25170898 C-25.01970378 183.10504251 -25.01970378 183.10504251 -28 181 C-28.64388672 179.91138672 -28.64388672 179.91138672 -29.30078125 178.80078125 C-31.25757404 175.57544693 -33.61951794 172.92391056 -36.1875 170.1875 C-36.6729126 169.66559082 -37.1583252 169.14368164 -37.65844727 168.60595703 C-39.09893392 167.06415465 -40.54746961 165.53045365 -42 164 C-42.77859375 163.17886719 -43.5571875 162.35773438 -44.359375 161.51171875 C-47.43169279 158.35277545 -49.93221368 155.80591832 -54 154 C-54 153.34 -54 152.68 -54 152 C-54.51304687 151.76539063 -55.02609375 151.53078125 -55.5546875 151.2890625 C-59.55988328 149.17769731 -63.27359538 146.60424217 -67.04296875 144.1015625 C-70.25180339 141.78294252 -70.25180339 141.78294252 -74 141 C-74 140.34 -74 139.68 -74 139 C-74.66773438 138.74734375 -75.33546875 138.4946875 -76.0234375 138.234375 C-78.91993774 137.03320167 -81.70947406 135.67729662 -84.51733398 134.28393555 C-110.68014536 121.44952038 -136.97251076 118.85026972 -165.71533203 119.08691406 C-173.32980048 119.10492429 -180.50648857 118.41211976 -188 117 C-189.05058594 116.87496094 -190.10117187 116.74992187 -191.18359375 116.62109375 C-194.29852034 115.93416819 -194.92929698 115.28394615 -197 113 C-199.53492822 111.68939692 -202.11577029 110.53879824 -204.72265625 109.37890625 C-207.30968544 107.81248892 -207.8799951 106.74564309 -209 104 C-209.8971875 102.948125 -209.8971875 102.948125 -210.8125 101.875 C-218.01741748 92.40567988 -221.43534772 80.87579366 -220 69 C-218.89407337 64.58151013 -217.49523733 60.30017158 -216 56 C-215.67386719 54.92363281 -215.34773438 53.84726562 -215.01171875 52.73828125 C-213.71745697 49.23527929 -212.0007792 48.16335245 -209 46 C-208.195625 45.175 -207.39125 44.35 -206.5625 43.5 C-199.9 37 -199.9 37 -196 37 C-196 36.34 -196 35.68 -196 35 C-194.79601562 34.65066406 -193.59203125 34.30132812 -192.3515625 33.94140625 C-190.7760125 33.48187083 -189.20049325 33.02222994 -187.625 32.5625 C-186.8309375 32.33240234 -186.036875 32.10230469 -185.21875 31.86523438 C-184.07792969 31.53168945 -184.07792969 31.53168945 -182.9140625 31.19140625 C-182.2123291 30.98717041 -181.5105957 30.78293457 -180.78759766 30.57250977 C-178.92489242 30.02623679 -178.92489242 30.02623679 -177 29 C-175.7625 29.0309375 -175.7625 29.0309375 -174.5 29.0625 C-171.82346261 29.28293845 -171.82346261 29.28293845 -170 27 C-169.01 27 -168.02 27 -167 27 C-167 27.66 -167 28.32 -167 29 C-165.88625 28.814375 -164.7725 28.62875 -163.625 28.4375 C-158.00733147 27.79953133 -152.52007438 28.22352546 -146.89941406 28.59130859 C-140.25304875 29.01899016 -133.66135534 29.10592261 -127 29 C-127 29.66 -127 30.32 -127 31 C-126.10099976 30.97280884 -126.10099976 30.97280884 -125.18383789 30.94506836 C-118.77066444 30.83649669 -112.74470568 31.43526182 -106.4375 32.5625 C-105.4587793 32.73450928 -104.48005859 32.90651855 -103.47167969 33.08374023 C-92.74812175 35.07382755 -82.32994412 38.06918876 -71.88085938 41.16064453 C-67.27118073 42.50370175 -62.63682908 43.75446274 -58 45 C-57.67 44.01 -57.34 43.02 -57 42 C-54.9927092 38.9890638 -54.16115776 38.36983503 -51 37 C-51 36.34 -51 35.68 -51 35 C-48.525 34.505 -48.525 34.505 -46 34 C-46 33.34 -46 32.68 -46 32 C-44.35546875 30.37890625 -44.35546875 30.37890625 -42.1875 28.5625 C-39.17536735 26.02660668 -39.17536735 26.02660668 -36.36328125 23.27734375 C-35 22 -35 22 -33 22 C-33 21.34 -33 20.68 -33 20 C-31.42578125 18.44921875 -31.42578125 18.44921875 -29.3125 16.6875 C-26.92515729 14.66035285 -24.65468039 12.65468039 -22.4375 10.4375 C-15.8284895 3.8284895 -9.93774652 -1.99635676 0 0 Z " fill="#FAFBFB" transform="translate(670,337)"/>
<path d="M0 0 C3.03262677 1.91578353 5.52350978 3.96372984 8.14453125 6.4140625 C8.64090088 6.87699707 9.13727051 7.33993164 9.64868164 7.81689453 C16.60804838 14.37072832 23.31705719 21.18970548 30.04077148 27.98339844 C31.51582731 29.47031583 33.0007346 30.94745376 34.48828125 32.421875 C36.22697392 34.1779546 37.87729338 35.95081479 39.5234375 37.7890625 C44.66713233 43.54339145 44.66713233 43.54339145 51.6484375 46.0078125 C54.84819585 45.18895918 57.77424368 44.03851935 60.83203125 42.7890625 C63.58240642 41.90177672 66.3594451 41.1220613 69.14453125 40.3515625 C69.90628662 40.13846436 70.66804199 39.92536621 71.45288086 39.70581055 C102.12306004 31.33950515 149.87291596 23.55950485 179.58203125 38.4140625 C190.67787649 44.92578482 197.54622144 54.10387743 201.0703125 66.34765625 C203.51046082 77.37212123 201.60211769 87.15881262 196.14453125 96.9140625 C188.69773927 108.58741209 178.62175574 114.90499748 165.59375 119.02734375 C155.32889821 121.10589629 144.94832649 120.82836723 134.53222656 120.67211914 C110.91900735 120.30552108 110.91900735 120.30552108 87.83203125 124.7890625 C86.99913574 125.03575684 86.16624023 125.28245117 85.30810547 125.53662109 C68.5508433 130.65331839 48.3455661 138.27552765 35.69140625 150.9296875 C33.79029606 152.83079769 32.21082819 153.59966403 29.83203125 154.7890625 C28.13111268 156.25010794 26.46660732 157.75415571 24.83203125 159.2890625 C21.91598848 162.02729778 19.41746345 164.05623669 15.83203125 165.7890625 C15.14934987 167.11426753 14.48132715 168.44718432 13.83203125 169.7890625 C12.84203125 170.1190625 11.85203125 170.4490625 10.83203125 170.7890625 C9.76720214 172.65982218 9.76720214 172.65982218 8.83203125 174.7890625 C7.96860702 175.97226111 7.07048703 177.13069495 6.14453125 178.265625 C-21.09083386 212.30464568 -33.01909035 253.55417319 -28.48046875 296.9765625 C-25.36146723 317.94915894 -18.99393441 339.02578075 -7.16796875 356.7890625 C-6.80477539 357.33723633 -6.44158203 357.88541016 -6.06738281 358.45019531 C-0.15522979 367.28642735 6.45781108 375.14668887 13.83203125 382.7890625 C14.4971875 383.50578125 15.16234375 384.2225 15.84765625 384.9609375 C28.60400685 398.36046544 44.87543619 408.05256311 61.76953125 415.2890625 C62.52572754 415.61535645 63.28192383 415.94165039 64.06103516 416.27783203 C68.93995693 418.27990541 73.65392695 419.4624298 78.86547852 420.27929688 C79.51444092 420.44751953 80.16340332 420.61574219 80.83203125 420.7890625 C81.16203125 421.4490625 81.49203125 422.1090625 81.83203125 422.7890625 C84.16632299 423.41727787 84.16632299 423.41727787 87.01953125 423.7890625 C88.12296875 423.95277344 89.22640625 424.11648438 90.36328125 424.28515625 C91.50796875 424.45144531 92.65265625 424.61773438 93.83203125 424.7890625 C94.83234375 424.96566406 95.83265625 425.14226562 96.86328125 425.32421875 C104.49741267 426.59972338 112.04245888 427.06123046 119.76953125 427.3515625 C120.84017822 427.39192627 121.9108252 427.43229004 123.01391602 427.47387695 C128.35298134 427.66292325 133.68954193 427.80847087 139.03125 427.89453125 C155.93857187 428.24866179 170.13661925 430.50660077 182.85546875 442.734375 C190.50294795 450.9626754 194.80883324 461.45031899 195.20703125 472.7265625 C194.75647164 484.57252568 190.64668151 494.84673899 182.58203125 503.5390625 C167.7118655 517.30532948 148.11461264 516.98970541 128.95703125 516.9765625 C127.94573151 516.97615463 127.94573151 516.97615463 126.91400146 516.97573853 C108.93877651 516.94262474 91.46120811 515.29619318 73.83203125 511.7890625 C73.50203125 512.4490625 73.17203125 513.1090625 72.83203125 513.7890625 C72.50203125 512.7990625 72.17203125 511.8090625 71.83203125 510.7890625 C70.20884146 510.42668987 68.58339545 510.07441093 66.95703125 509.7265625 C66.05210937 509.52933594 65.1471875 509.33210938 64.21484375 509.12890625 C61.82189 508.55704093 61.82189 508.55704093 59.83203125 509.7890625 C59.50203125 509.1290625 59.17203125 508.4690625 58.83203125 507.7890625 C55.19541257 506.05186118 51.37258702 504.77536246 47.58203125 503.4140625 C46.00615234 502.80498047 46.00615234 502.80498047 44.3984375 502.18359375 C41.52163331 501.15173623 38.85437144 500.24948808 35.83203125 499.7890625 C32.68592717 501.34892534 32.68592717 501.34892534 30.83203125 503.7890625 C30.17203125 503.7890625 29.51203125 503.7890625 28.83203125 503.7890625 C28.83203125 504.4490625 28.83203125 505.1090625 28.83203125 505.7890625 C27.43359375 507.1640625 27.43359375 507.1640625 25.45703125 508.7890625 C21.00281716 512.55128262 16.97519593 516.64964532 12.93359375 520.84765625 C10.83203125 522.7890625 10.83203125 522.7890625 8.83203125 522.7890625 C8.83203125 523.4490625 8.83203125 524.1090625 8.83203125 524.7890625 C7.18851668 526.15083172 5.51680469 527.47868316 3.83203125 528.7890625 C3.02765625 529.5934375 2.22328125 530.3978125 1.39453125 531.2265625 C-8.32727777 540.94837152 -8.32727777 540.94837152 -15.16796875 541.7890625 C-21.92494792 540.71196699 -26.7878221 537.91003974 -32.48046875 534.2265625 C-34.05828748 533.22272795 -35.63765049 532.2213154 -37.21875 531.22265625 C-37.90622314 530.77978271 -38.59369629 530.33690918 -39.30200195 529.88061523 C-41.28108547 528.63687666 -41.28108547 528.63687666 -44.16796875 527.7890625 C-44.83441406 527.08394531 -45.50085938 526.37882813 -46.1875 525.65234375 C-50.10260969 521.57635918 -55.06977592 518.90952227 -59.85546875 515.9765625 C-81.75281224 502.55078184 -81.75281224 502.55078184 -85.16796875 494.7890625 C-86.56282996 487.01575826 -84.10717449 481.4013007 -80.16796875 474.7890625 C-81.15796875 474.1290625 -82.14796875 473.4690625 -83.16796875 472.7890625 C-81.51796875 472.7890625 -79.86796875 472.7890625 -78.16796875 472.7890625 C-77.81734375 471.6134375 -77.46671875 470.4378125 -77.10546875 469.2265625 C-75.56709685 464.60405078 -73.64263382 460.20791707 -71.60546875 455.7890625 C-71.3005249 455.1180249 -70.99558105 454.4469873 -70.68139648 453.75561523 C-68.4107005 448.91042838 -68.4107005 448.91042838 -66.16796875 447.7890625 C-65.44751111 445.807804 -64.78795616 443.80402157 -64.16796875 441.7890625 C-63.73484375 440.9846875 -63.30171875 440.1803125 -62.85546875 439.3515625 C-61.82459007 435.50919652 -63.29755067 433.08368781 -65.16796875 429.7890625 C-69.15293778 422.90074353 -69.15293778 422.90074353 -74.16796875 416.7890625 C-74.80598075 415.5771183 -75.40636198 414.34505334 -75.98046875 413.1015625 C-77.40462118 410.15114859 -78.96916913 407.5474263 -80.91796875 404.9140625 C-83.16796875 401.7890625 -83.16796875 401.7890625 -83.16796875 399.7890625 C-85.45996052 399.92969385 -87.75156061 400.07672193 -90.04296875 400.2265625 C-91.31914062 400.30777344 -92.5953125 400.38898438 -93.91015625 400.47265625 C-97.05097027 400.58112277 -97.05097027 400.58112277 -99.16796875 401.7890625 C-101.0417648 401.85940019 -102.91797977 401.8733647 -104.79296875 401.8515625 C-106.29730469 401.83802734 -106.29730469 401.83802734 -107.83203125 401.82421875 C-108.98832031 401.80681641 -108.98832031 401.80681641 -110.16796875 401.7890625 C-110.49796875 402.4490625 -110.82796875 403.1090625 -111.16796875 403.7890625 C-112.43640625 403.76457031 -113.70484375 403.74007813 -115.01171875 403.71484375 C-118.49308729 403.71280069 -121.8674875 403.92209838 -125.32421875 404.33203125 C-126.20207031 404.43580078 -127.07992187 404.53957031 -127.984375 404.64648438 C-129.77489462 404.86671568 -131.56402888 405.09851537 -133.3515625 405.34179688 C-139.54343234 406.04645167 -144.52060513 405.57879518 -150.16796875 402.7890625 C-155.0027067 398.50372659 -156.79667455 393.28047026 -159.0546875 387.30078125 C-159.90942737 384.65313028 -159.90942737 384.65313028 -162.16796875 383.7890625 C-162.40755008 381.88375765 -162.64065678 379.97735632 -162.83666992 378.06707764 C-163.38977848 374.26389582 -164.73550393 370.79111709 -166.07421875 367.203125 C-166.35898071 366.42013031 -166.64374268 365.63713562 -166.93713379 364.83041382 C-167.83956498 362.35534266 -168.7536926 359.8847792 -169.66796875 357.4140625 C-170.28199597 355.73334526 -170.89528426 354.05235787 -171.5078125 352.37109375 C-174.06797014 344.96456658 -174.06797014 344.96456658 -177.16796875 337.7890625 C-177.79355252 333.97220965 -177.92450475 330.33741535 -176.19946289 326.80688477 C-171.83089229 320.78950348 -166.56539174 317.49884208 -160.16796875 313.8515625 C-158.09949363 312.63411436 -156.03178263 311.41536701 -153.96484375 310.1953125 C-152.96775391 309.61265625 -151.97066406 309.03 -150.94335938 308.4296875 C-147.37763213 306.32186844 -143.88644088 304.11489177 -140.41796875 301.8515625 C-135.37747088 298.56880812 -130.29775121 295.35971649 -125.1796875 292.19921875 C-123.04591261 290.94137552 -123.04591261 290.94137552 -122.16796875 288.7890625 C-122.080851 285.72663929 -122.05248415 282.68719785 -122.0703125 279.625 C-122.07172745 278.71779205 -122.0731424 277.81058411 -122.07460022 276.87588501 C-122.08020779 273.97191095 -122.09276157 271.06801335 -122.10546875 268.1640625 C-122.11048277 266.19791778 -122.11504585 264.23177185 -122.11914062 262.265625 C-122.13017969 257.4400746 -122.1474494 252.61458153 -122.16796875 247.7890625 C-123.81796875 247.4590625 -125.46796875 247.1290625 -127.16796875 246.7890625 C-127.49796875 245.7990625 -127.82796875 244.8090625 -128.16796875 243.7890625 C-130.49945789 242.03505258 -130.49945789 242.03505258 -133.42578125 240.34765625 C-135.06691895 239.35536011 -135.06691895 239.35536011 -136.74121094 238.34301758 C-137.6119928 237.82428574 -137.6119928 237.82428574 -138.50036621 237.29507446 C-141.49183795 235.51195563 -144.46553629 233.69961784 -147.44140625 231.890625 C-148.02716431 231.5355336 -148.61292236 231.1804422 -149.21643066 230.81459045 C-153.84660466 228.00224196 -158.41276383 225.10958556 -162.91796875 222.1015625 C-164.54992187 221.01294922 -164.54992187 221.01294922 -166.21484375 219.90234375 C-172.70400797 215.2586429 -176.8142345 211.94042069 -178.16796875 203.7890625 C-177.61994847 194.63604931 -173.33340792 185.80334472 -170.04296875 177.3515625 C-169.19686946 175.16841445 -168.3531759 172.98444115 -167.51541138 170.79808044 C-166.9974643 169.447205 -166.4746177 168.09819516 -165.94625854 166.75135803 C-164.86181879 163.93043664 -164.16796875 161.84221105 -164.16796875 158.7890625 C-163.50796875 158.7890625 -162.84796875 158.7890625 -162.16796875 158.7890625 C-161.9978125 158.09941406 -161.82765625 157.40976562 -161.65234375 156.69921875 C-159.29440887 147.55594998 -156.68760674 138.10555841 -149.16796875 131.7890625 C-137.56250969 127.96167779 -122.7738681 131.66756531 -110.98046875 133.2890625 C-93.53734927 137.0637637 -93.53734927 137.0637637 -77.2578125 133.83984375 C-76.54753906 132.93621094 -75.83726562 132.03257812 -75.10546875 131.1015625 C-74.2959375 130.10253906 -73.48640625 129.10351562 -72.65234375 128.07421875 C-71.82295455 126.98012386 -70.99485974 125.8850467 -70.16796875 124.7890625 C-69.27961997 123.66096422 -68.38896979 122.53467466 -67.49609375 121.41015625 C-65.75890247 119.20627587 -64.05326698 116.98343513 -62.375 114.734375 C-61.08960458 113.01899775 -59.78390646 111.31783102 -58.4296875 109.65625 C-55.14380882 105.52807566 -54.73897664 102.99080217 -55.16796875 97.7890625 C-56.10530835 95.15287203 -57.07190227 92.77786722 -58.2734375 90.2734375 C-58.75506096 89.22872284 -58.75506096 89.22872284 -59.24641418 88.16290283 C-60.27042854 85.94897003 -61.31242307 83.74408281 -62.35546875 81.5390625 C-63.03703483 80.0747895 -63.71738413 78.60994949 -64.39648438 77.14453125 C-66.82712046 71.90845326 -69.27776848 66.68183054 -71.73461914 61.45800781 C-72.18184326 60.49475586 -72.62906738 59.53150391 -73.08984375 58.5390625 C-73.47108398 57.724375 -73.85232422 56.9096875 -74.24511719 56.0703125 C-76.39852181 50.74718743 -76.84513051 46.627073 -74.85546875 41.2265625 C-68.40243613 31.8364353 -56.899201 26.50376502 -47.34375 20.87890625 C-42.57323343 18.05839478 -37.923185 15.0828429 -33.29296875 12.0390625 C-28.10422581 8.66105035 -22.91183298 5.29260058 -17.60546875 2.1015625 C-16.55230469 1.45832031 -15.49914062 0.81507813 -14.4140625 0.15234375 C-9.30178933 -1.99468794 -5.2843118 -2.01989724 0 0 Z M-161.16796875 380.7890625 C-160.16796875 382.7890625 -160.16796875 382.7890625 -160.16796875 382.7890625 Z " fill="#FAFAFA" transform="translate(388.16796875,140.2109375)"/>
<path d="M0 0 C0.33 0.66 0.66 1.32 1 2 C0.0390625 4.2421875 0.0390625 4.2421875 -1.375 6.875 C-6.24772555 15.99434671 -6.21012736 26.83452148 -4.50390625 36.9375 C-2.94796121 42.00091438 -0.17025908 45.80154878 3 50 C3 50.66 3 51.32 3 52 C3.66 52 4.32 52 5 52 C6.15425847 53.18820725 7.30826545 54.37665995 8.4609375 55.56640625 C18.60027515 65.0109162 31.53075797 66.15450022 44.73046875 66.16796875 C45.87550369 66.17129715 47.02053864 66.17462555 48.20027161 66.17805481 C50.62691854 66.18311249 53.05357241 66.18546349 55.48022461 66.18530273 C59.12951744 66.18746563 62.77849593 66.20556815 66.42773438 66.22460938 C82.96165276 66.26497439 99.31408376 65.72026217 115.5625 62.375 C116.74900146 62.13873901 116.74900146 62.13873901 117.95947266 61.89770508 C126.56282784 60.06988301 134.91458417 57.35594796 143.24438477 54.55419922 C144.29553467 54.21018066 145.34668457 53.86616211 146.4296875 53.51171875 C147.36022949 53.19678467 148.29077148 52.88185059 149.24951172 52.55737305 C152.44870361 51.9090724 154.83617505 52.29074629 158 53 C158 53.66 158 54.32 158 55 C157.46818115 54.79930908 156.9363623 54.59861816 156.38842773 54.3918457 C153.11390787 53.85462763 150.93589315 54.71046921 147.78515625 55.73046875 C146.55200684 56.11968506 145.31885742 56.50890137 144.04833984 56.90991211 C143.39806824 57.1188913 142.74779663 57.32787048 142.07781982 57.54318237 C129.20290818 61.65941863 116.39862618 65.07278127 103 67 C102.28021973 67.10892578 101.56043945 67.21785156 100.81884766 67.33007812 C89.14070434 69.02233129 77.31195318 69.33787191 65.53213501 69.7237854 C63.7913684 69.78190492 62.05076423 69.84517048 60.31039429 69.91415405 C48.86034945 70.35180514 38.25345256 69.61919805 27.01690674 67.35726929 C24.89793202 66.98191996 22.79309759 66.76310941 20.65185547 66.55395508 C16.13998662 65.86954336 14.99327047 64.31686728 12 61 C10.33607955 60.32650839 8.66967972 59.6590841 7 59 C4 55.68965517 4 55.68965517 4 53 C3.01 52.67 2.02 52.34 1 52 C-6.87268587 41.04136153 -9.18626425 31.3671728 -8 18 C-6.49247557 11.31715973 -4.21410929 5.41814051 0 0 Z " fill="#949596" transform="translate(450,781)"/>
<path d="M0 0 C0.671875 1.76171875 0.671875 1.76171875 1 4 C-2.89436058 11.04763015 -10.27699735 15.07436322 -17 19 C-18.62548007 19.97836952 -20.25049423 20.95751359 -21.875 21.9375 C-22.69484375 22.42605469 -23.5146875 22.91460938 -24.359375 23.41796875 C-28.97754225 26.18477014 -33.55526319 29.01617747 -38.13183594 31.85107422 C-40.19821168 33.1219007 -42.2746516 34.37537797 -44.3515625 35.62890625 C-45.81783969 36.52322217 -47.28398735 37.4177505 -48.75 38.3125 C-49.45398926 38.73305664 -50.15797852 39.15361328 -50.88330078 39.58691406 C-54.92996568 41.94208228 -54.92996568 41.94208228 -57 46 C-57.27631958 51.10876425 -57.31336665 56.21698266 -57.35009766 61.33251953 C-57.36666552 63.02406566 -57.3939669 64.71554153 -57.43212891 66.40673828 C-57.48698252 68.85225528 -57.50878035 71.29613769 -57.5234375 73.7421875 C-57.54610687 74.49442596 -57.56877625 75.24666443 -57.59213257 76.021698 C-57.57654749 79.90800075 -57.19851721 81.74889143 -54.76245117 84.83032227 C-52.32095434 86.74791681 -49.96677612 88.42965678 -47.27734375 89.97265625 C-46.40916016 90.47990234 -45.54097656 90.98714844 -44.64648438 91.50976562 C-43.30553711 92.27836914 -43.30553711 92.27836914 -41.9375 93.0625 C-40.15167514 94.08938135 -38.36900004 95.12176392 -36.58984375 96.16015625 C-35.80472412 96.61011963 -35.01960449 97.06008301 -34.21069336 97.52368164 C-31.82450699 99.11719561 -29.96117612 100.91361269 -28 103 C-31.31566742 101.73782501 -34.36679376 100.32017726 -37.43359375 98.5390625 C-38.24763672 98.06726563 -39.06167969 97.59546875 -39.90039062 97.109375 C-40.73763672 96.61953125 -41.57488281 96.1296875 -42.4375 95.625 C-43.27087891 95.14289063 -44.10425781 94.66078125 -44.96289062 94.1640625 C-57.59184696 86.81630609 -57.59184696 86.81630609 -59 84 C-60.03220102 76.80387513 -60.18316965 69.69949312 -60.1875 62.4375 C-60.19974609 61.35275391 -60.21199219 60.26800781 -60.22460938 59.15039062 C-60.23560027 53.1163908 -60.2268488 47.65180498 -58 42 C-55.81979355 39.99789492 -54.12064093 38.71005023 -51.625 37.25 C-50.96870605 36.83935303 -50.31241211 36.42870605 -49.63623047 36.00561523 C-47.43991815 34.64253623 -45.22283352 33.31933805 -43 32 C-41.38506028 31.02793559 -39.77048597 30.05526388 -38.15625 29.08203125 C-35.63324327 27.5659114 -33.10860128 26.05272338 -30.58032227 24.54541016 C-24.86589475 21.13703507 -19.18292295 17.68657198 -13.5625 14.125 C-12.8710791 13.69711182 -12.1796582 13.26922363 -11.46728516 12.82836914 C-6.29911012 9.51680411 -2.00445199 6.01335597 0 0 Z " fill="#898A8C" transform="translate(827,544)"/>
<path d="M0 0 C0.33 0.66 0.66 1.32 1 2 C0.0390625 4.2421875 0.0390625 4.2421875 -1.375 6.875 C-6.24772555 15.99434671 -6.21012736 26.83452148 -4.50390625 36.9375 C-2.94796121 42.00091438 -0.17025908 45.80154878 3 50 C3 50.66 3 51.32 3 52 C3.66 52 4.32 52 5 52 C6.15425847 53.18820725 7.30826545 54.37665995 8.4609375 55.56640625 C16.46222354 63.01938081 26.47682486 65.29235757 37.0625 66.1875 C37.92810547 66.26935547 38.79371094 66.35121094 39.68554688 66.43554688 C41.78949774 66.63315552 43.89464582 66.81795005 46 67 C46 67.33 46 67.66 46 68 C35.71934839 68.23218536 25.88241505 68.29413835 16 65 C15.38125 64.360625 14.7625 63.72125 14.125 63.0625 C12.13081018 60.86012847 12.13081018 60.86012847 9.4375 60 C6.56539747 58.82170153 5.56832621 57.6413915 4 55 C4 54.34 4 53.68 4 53 C3.01 52.67 2.02 52.34 1 52 C-6.87268587 41.04136153 -9.18626425 31.3671728 -8 18 C-6.49247557 11.31715973 -4.21410929 5.41814051 0 0 Z " fill="#828486" transform="translate(450,781)"/>
<path d="M0 0 C1.86313724 1.79147811 3.66494292 3.56756695 5.25 5.61328125 C12.23851504 14.56731614 22.87531848 19.49592176 34 21 C36.1125514 21.05627871 38.22683573 21.06252637 40.33984375 21.02734375 C41.55752441 21.01364746 42.77520508 20.99995117 44.02978516 20.98583984 C45.964104 20.96191162 45.964104 20.96191162 47.9375 20.9375 C57.69934004 20.86267721 67.39125032 21.03234377 77.125 21.875 C78.54413696 21.99282837 78.54413696 21.99282837 79.99194336 22.11303711 C84.16612428 22.51474945 87.29212975 22.93797547 91 25 C84.90914414 25.09823961 78.88982438 24.89147997 72.8125 24.5 C65.61184747 24.03969833 58.46355554 23.98761676 51.25 24.0625 C42.60897641 24.13582554 34.50969234 23.60361465 26 22 C24.42412109 21.81244141 24.42412109 21.81244141 22.81640625 21.62109375 C19.70147966 20.93416819 19.07070302 20.28394615 17 18 C14.46507178 16.68939692 11.88422971 15.53879824 9.27734375 14.37890625 C6.6828476 12.80796776 6.13019246 11.75013499 5 9 C4.319375 8.175 3.63875 7.35 2.9375 6.5 C1.13355073 4.17232353 0.42308458 2.8558209 0 0 Z " fill="#848687" transform="translate(456,432)"/>
<path d="M0 0 C0.99 0 1.98 0 3 0 C3 0.66 3 1.32 3 2 C4.80791016 1.72349609 4.80791016 1.72349609 6.65234375 1.44140625 C13.00670374 0.73536625 19.21646558 1.37208133 25.5625 1.9375 C26.76197266 2.03740234 27.96144531 2.13730469 29.19726562 2.24023438 C32.1322537 2.48579115 35.06633186 2.73922241 38 3 C38 3.33 38 3.66 38 4 C36.09492676 4.02187378 36.09492676 4.02187378 34.15136719 4.04418945 C29.38742527 4.10266632 24.6239319 4.17989149 19.86035156 4.26245117 C17.80834292 4.29547015 15.75624848 4.32357177 13.70410156 4.34643555 C-3.82719648 4.45732209 -3.82719648 4.45732209 -20.61816406 9.09887695 C-23 10 -23 10 -26 10 C-26 9.34 -26 8.68 -26 8 C-24.79601562 7.65066406 -23.59203125 7.30132812 -22.3515625 6.94140625 C-20.7760125 6.48187083 -19.20049325 6.02222994 -17.625 5.5625 C-16.8309375 5.33240234 -16.036875 5.10230469 -15.21875 4.86523438 C-14.45820313 4.64287109 -13.69765625 4.42050781 -12.9140625 4.19140625 C-12.2123291 3.98717041 -11.5105957 3.78293457 -10.78759766 3.57250977 C-8.92489242 3.02623679 -8.92489242 3.02623679 -7 2 C-5.7625 2.0309375 -5.7625 2.0309375 -4.5 2.0625 C-1.82346261 2.28293845 -1.82346261 2.28293845 0 0 Z " fill="#939494" transform="translate(500,364)"/>
<path d="M0 0 C4.36384711 0.96925205 8.27699608 2.44530516 12.4140625 4.10546875 C26.67121371 9.59268435 41.74374343 12.71997534 56.8515625 14.85546875 C56.8515625 15.18546875 56.8515625 15.51546875 56.8515625 15.85546875 C49.90115164 16.1216547 43.61641895 15.46751965 36.8515625 13.85546875 C36.5215625 14.51546875 36.1915625 15.17546875 35.8515625 15.85546875 C35.3565625 14.37046875 35.3565625 14.37046875 34.8515625 12.85546875 C33.22837271 12.49309612 31.6029267 12.14081718 29.9765625 11.79296875 C29.07164062 11.59574219 28.16671875 11.39851562 27.234375 11.1953125 C24.84142125 10.62344718 24.84142125 10.62344718 22.8515625 11.85546875 C22.5215625 11.19546875 22.1915625 10.53546875 21.8515625 9.85546875 C18.21494382 8.11826743 14.39211827 6.84176871 10.6015625 5.48046875 C9.02568359 4.87138672 9.02568359 4.87138672 7.41796875 4.25 C4.54004984 3.21774265 1.87526002 2.31469137 -1.1484375 1.85546875 C-4.41610888 3.37490289 -4.41610888 3.37490289 -6.1484375 5.85546875 C-6.8084375 5.52546875 -7.4684375 5.19546875 -8.1484375 4.85546875 C-4.08928438 -0.18772149 -4.08928438 -0.18772149 0 0 Z " fill="#8A8C8D" transform="translate(425.1484375,638.14453125)"/>
<path d="M0 0 C-0.66 1.65 -1.32 3.3 -2 5 C-2.66 4.67 -3.32 4.34 -4 4 C-5.96698123 4.89974298 -5.96698123 4.89974298 -8.12109375 6.32421875 C-8.96510742 6.85257324 -9.80912109 7.38092773 -10.67871094 7.92529297 C-11.58911133 8.50682129 -12.49951172 9.08834961 -13.4375 9.6875 C-14.83983887 10.57139404 -14.83983887 10.57139404 -16.27050781 11.47314453 C-18.21929557 12.70238494 -20.1660429 13.93486552 -22.11083984 15.17041016 C-24.8315742 16.89334266 -27.56325184 18.59688515 -30.30078125 20.29296875 C-41.23384355 27.06641096 -41.23384355 27.06641096 -51.50390625 34.79296875 C-53 36 -53 36 -55 37 C-51.43820025 27.95908595 -38.04014661 22.37630137 -30.125 17.5 C-29.07868408 16.85071533 -28.03236816 16.20143066 -26.9543457 15.5324707 C-23.97243421 13.68361615 -20.98707402 11.84049916 -18 10 C-16.85362061 9.29302979 -16.85362061 9.29302979 -15.68408203 8.57177734 C-12.88975314 6.84933818 -10.09362488 5.13011076 -7.29296875 3.41796875 C-1.76584022 0 -1.76584022 0 0 0 Z " fill="#818385" transform="translate(370,144)"/>
<path d="M0 0 C-1.94514847 0.99198259 -3.87827713 1.94930305 -5.89453125 2.7890625 C-10.89500168 4.9684936 -13.83853431 7.69708339 -17.265625 11.90234375 C-19.95574081 15.15592976 -22.98223394 18.05389593 -26 21 C-26.66 21.66 -27.32 22.32 -28 23 C-28.66 22.67 -29.32 22.34 -30 22 C-30 21.34 -30 20.68 -30 20 C-28.42578125 18.44921875 -28.42578125 18.44921875 -26.3125 16.6875 C-23.92515729 14.66035285 -21.65468039 12.65468039 -19.4375 10.4375 C-8.60869565 -0.39130435 -8.60869565 -0.39130435 0 0 Z " fill="#C1C1C3" transform="translate(667,337)"/>
<path d="M0 0 C8.14189555 3.07295529 24.10318709 10.20637418 28 18 C22.07396493 15.81405814 17.04719242 12.39074785 11.75 9 C10.73164062 8.35804688 9.71328125 7.71609375 8.6640625 7.0546875 C7.69726562 6.43851562 6.73046875 5.82234375 5.734375 5.1875 C4.84975586 4.62417969 3.96513672 4.06085938 3.05371094 3.48046875 C1 2 1 2 0 0 Z " fill="#8C8D8E" transform="translate(686,348)"/>
<path d="M0 0 C-0.99 0.33 -1.98 0.66 -3 1 C-3.309375 1.804375 -3.61875 2.60875 -3.9375 3.4375 C-5.22975088 6.55410507 -5.99053336 6.71022858 -9 8 C-10.68889872 9.3050581 -12.3603279 10.63360658 -14 12 C-14 7.11347655 -10.32606928 4.32606928 -7 1 C-2.38461538 -1.19230769 -2.38461538 -1.19230769 0 0 Z " fill="#C3C4C4" transform="translate(466,769)"/>
<path d="M0 0 C5.53712531 1.24277701 10.77466833 3.8275823 15.9375 6.125 C11.54807202 7.58814266 8.2491437 5.42494226 4.20703125 3.59960938 C2.15883877 2.71217088 2.15883877 2.71217088 -1.0625 2.125 C-4.02525421 3.82538648 -4.02525421 3.82538648 -6.0625 6.125 C-6.7225 5.795 -7.3825 5.465 -8.0625 5.125 C-4.07124936 0.16617344 -4.07124936 0.16617344 0 0 Z " fill="#808284" transform="translate(425.0625,637.875)"/>
<path d="M0 0 C1.32 0.66 2.64 1.32 4 2 C1.27161565 2.81520635 -1.45764417 3.62724843 -4.1875 4.4375 C-5.34088867 4.78264648 -5.34088867 4.78264648 -6.51757812 5.13476562 C-10.32525141 6.26235986 -14.08151762 7.3168177 -18 8 C-18 7.34 -18 6.68 -18 6 C-16.78441406 5.65066406 -15.56882812 5.30132812 -14.31640625 4.94140625 C-12.73172137 4.4819414 -11.14708863 4.0222967 -9.5625 3.5625 C-8.76005859 3.33240234 -7.95761719 3.10230469 -7.13085938 2.86523438 C-3.25946753 2.01294138 -3.25946753 2.01294138 0 0 Z " fill="#949697" transform="translate(492,366)"/>
<path d="M0 0 C-1.96133591 0.99374353 -3.92088696 1.96476747 -5.9296875 2.859375 C-11.01271604 5.18654469 -14.15287014 7.96967348 -18 12 C-18.66 12 -19.32 12 -20 12 C-18.81263388 8.43790164 -17.63488012 7.67094844 -14.6875 5.4375 C-13.90761719 4.83808594 -13.12773438 4.23867188 -12.32421875 3.62109375 C-7.98308923 0.59324711 -5.34939046 -0.24315411 0 0 Z " fill="#8C8C8D" transform="translate(667,337)"/>
<path d="M0 0 C3.09169696 2.97278554 5.87229194 6.13862619 8.6328125 9.4140625 C9.70342332 10.65597105 10.84057247 11.84057247 12 13 C9.50907189 14.24546405 8.58919267 13.7767578 6 13 C5.9175 12.443125 5.835 11.88625 5.75 11.3125 C5.08849791 8.8088261 5.08849791 8.8088261 3 6.5 C1.129344 4.16168 0.42924153 2.89738032 0 0 Z " fill="#9C9EA0" transform="translate(456,432)"/>
<path d="M0 0 C4.30764815 1.56641751 8.06171464 3.68336156 12 6 C11.34 6.66 10.68 7.32 10 8 C8.33055479 6.85821872 6.6645052 5.71147095 5 4.5625 C4.071875 3.92441406 3.14375 3.28632813 2.1875 2.62890625 C1.465625 2.09136719 0.74375 1.55382812 0 1 C0 0.67 0 0.34 0 0 Z " fill="#949598" transform="translate(686,348)"/>
<path d="M0 0 C0.99 0.495 0.99 0.495 2 1 C2 1.66 2 2.32 2 3 C2.66 3 3.32 3 4 3 C5.38232443 4.62626404 6.71937515 6.2925002 8 8 C7.34 8.66 6.68 9.32 6 10 C3 6.25 3 6.25 3 4 C2.01 3.67 1.02 3.34 0 3 C0 2.01 0 1.02 0 0 Z " fill="#98999A" transform="translate(451,830)"/>
<path d="M0 0 C-2.64 1.98 -5.28 3.96 -8 6 C-8.66 5.67 -9.32 5.34 -10 5 C-7.70817629 1.38133099 -4.43955904 -2.21977952 0 0 Z " fill="#8E9092" transform="translate(466,769)"/>
<path d="M0 0 C-0.66 1.65 -1.32 3.3 -2 5 C-2.66 4.67 -3.32 4.34 -4 4 C-6.11683841 4.89163577 -6.11683841 4.89163577 -8 6 C-8.33 5.34 -8.66 4.68 -9 4 C-2.25 0 -2.25 0 0 0 Z " fill="#A1A2A2" transform="translate(370,144)"/>
<path d="M0 0 C1.32 0 2.64 0 4 0 C4.33 0.99 4.66 1.98 5 3 C4.01 3.495 4.01 3.495 3 4 C3 3.01 3 2.02 3 1 C2.01 0.67 1.02 0.34 0 0 Z " fill="#F5F6F5" transform="translate(656,547)"/>
<path d="M0 0 C0.33 0 0.66 0 1 0 C1 1.65 1 3.3 1 5 C0.34 3.68 -0.32 2.36 -1 1 C-0.67 0.67 -0.34 0.34 0 0 Z " fill="#F5F6F5" transform="translate(673,620)"/>
<path d="M0 0 C1.98 0.495 1.98 0.495 4 1 C2.35 1.66 0.7 2.32 -1 3 C-0.67 2.01 -0.34 1.02 0 0 Z " fill="#F5F6F6" transform="translate(577,469)"/>
<path d="M0 0 C0.66 0.66 1.32 1.32 2 2 C1.67 2.99 1.34 3.98 1 5 C0.67 3.35 0.34 1.7 0 0 Z " fill="#F5F5F5" transform="translate(312,264)"/>
<path d="M0 0 C0.99 0.99 1.98 1.98 3 3 C2.01 3.495 2.01 3.495 1 4 C0.67 2.68 0.34 1.36 0 0 Z " fill="#F0F0EF" transform="translate(625,856)"/>
<path d="M0 0 C0.99 1.32 1.98 2.64 3 4 C2.01 3.67 1.02 3.34 0 3 C0 2.01 0 1.02 0 0 Z " fill="#E9E9E9" transform="translate(828,532)"/>
<path d="M0 0 C0.99 0.33 1.98 0.66 3 1 C2.01 1.33 1.02 1.66 0 2 C0 1.34 0 0.68 0 0 Z " fill="#E7E7E7" transform="translate(701,858)"/>
<path d="M0 0 C1.32 0.33 2.64 0.66 4 1 C3.01 1.33 2.02 1.66 1 2 C0.67 1.34 0.34 0.68 0 0 Z " fill="#F2F1F2" transform="translate(466,654)"/>
<path d="M0 0 C0.66 0 1.32 0 2 0 C1.67 0.99 1.34 1.98 1 3 C0.67 2.01 0.34 1.02 0 0 Z " fill="#F5F6F6" transform="translate(322,571)"/>
<path d="M0 0 C0.66 1.32 1.32 2.64 2 4 C1.34 3.67 0.68 3.34 0 3 C0 2.01 0 1.02 0 0 Z " fill="#EAECED" transform="translate(209,347)"/>
<path d="M0 0 C1.32 0.33 2.64 0.66 4 1 C3.01 1.495 3.01 1.495 2 2 C1.34 1.34 0.68 0.68 0 0 Z " fill="#F5F5F4" transform="translate(379,341)"/>
<path d="M0 0 C0 0.99 0 1.98 0 3 C-0.66 2.34 -1.32 1.68 -2 1 C-1.34 0.67 -0.68 0.34 0 0 Z " fill="#F0F1F0" transform="translate(556,259)"/>
<path d="M0 0 C0.99 0.495 0.99 0.495 2 1 C1.01 2.485 1.01 2.485 0 4 C0 2.68 0 1.36 0 0 Z " fill="#E2E4E2" transform="translate(368,136)"/>
<path d="M0 0 C0.99 0.33 1.98 0.66 3 1 C2.01 1.33 1.02 1.66 0 2 C0 1.34 0 0.68 0 0 Z " fill="#EBECEC" transform="translate(484,850)"/>
<path d="M0 0 C1 4 1 4 1 4 Z " fill="#F2F4F4" transform="translate(265,395)"/>
<path d="M0 0 C1 4 1 4 1 4 Z " fill="#EBEDEE" transform="translate(312,194)"/>
<path d="M0 0 C3 1 3 1 3 1 Z " fill="#E6E8E7" transform="translate(707,854)"/>
<path d="M0 0 C0.66 0 1.32 0 2 0 C1.67 0.66 1.34 1.32 1 2 C0.67 1.34 0.34 0.68 0 0 Z " fill="#F2F2F3" transform="translate(601,836)"/>
<path d="M0 0 C0.66 0 1.32 0 2 0 C1.67 0.66 1.34 1.32 1 2 C0.67 1.34 0.34 0.68 0 0 Z " fill="#EDEEEF" transform="translate(723,820)"/>
<path d="" fill="#ECEEEE" transform="translate(0,0)"/>
<path d="M0 0 C0.33 0.66 0.66 1.32 1 2 C0.34 1.67 -0.32 1.34 -1 1 C-0.67 0.67 -0.34 0.34 0 0 Z " fill="#E6E8E8" transform="translate(822,706)"/>
<path d="M0 0 C0.66 0.66 1.32 1.32 2 2 C1.34 2 0.68 2 0 2 C0 1.34 0 0.68 0 0 Z " fill="#F2F3F2" transform="translate(644,699)"/>
<path d="M0 0 C0.66 0.66 1.32 1.32 2 2 C1.34 2 0.68 2 0 2 C0 1.34 0 0.68 0 0 Z " fill="#EBECED" transform="translate(358,678)"/>
<path d="M0 0 C0.66 0 1.32 0 2 0 C1.67 0.66 1.34 1.32 1 2 C0.67 1.34 0.34 0.68 0 0 Z " fill="#EDEEEE" transform="translate(353,674)"/>
<path d="M0 0 C0.66 0.66 1.32 1.32 2 2 C1.34 2 0.68 2 0 2 C0 1.34 0 0.68 0 0 Z " fill="#EEEFEF" transform="translate(821,657)"/>
<path d="M0 0 C0.66 0.66 1.32 1.32 2 2 C1.34 2 0.68 2 0 2 C0 1.34 0 0.68 0 0 Z " fill="#EDECED" transform="translate(322,653)"/>
<path d="M0 0 C0.66 0 1.32 0 2 0 C1.67 0.66 1.34 1.32 1 2 C0.67 1.34 0.34 0.68 0 0 Z " fill="#F2F4F5" transform="translate(435,645)"/>
<path d="M0 0 C0.99 0.495 0.99 0.495 2 1 C1.01 1.495 1.01 1.495 0 2 C0 1.34 0 0.68 0 0 Z " fill="#F4F5F4" transform="translate(420,643)"/>
<path d="M0 0 C0.66 0.66 1.32 1.32 2 2 C1.34 2 0.68 2 0 2 C0 1.34 0 0.68 0 0 Z " fill="#F6F7F7" transform="translate(426,641)"/>
<path d="" fill="#F3F4F3" transform="translate(0,0)"/>
<path d="" fill="#F0F2F4" transform="translate(0,0)"/>
<path d="" fill="#F4F3F4" transform="translate(0,0)"/>
<path d="M0 0 C0.66 0 1.32 0 2 0 C1.67 0.66 1.34 1.32 1 2 C0.67 1.34 0.34 0.68 0 0 Z " fill="#F5F5F7" transform="translate(320,577)"/>
<path d="M0 0 C3 1 3 1 3 1 Z " fill="#F5F6F5" transform="translate(490,565)"/>
<path d="M0 0 C0.66 0 1.32 0 2 0 C1.67 0.66 1.34 1.32 1 2 C0.67 1.34 0.34 0.68 0 0 Z " fill="#F3F4F5" transform="translate(306,550)"/>
<path d="M0 0 C0.66 0 1.32 0 2 0 C1.67 0.66 1.34 1.32 1 2 C0.67 1.34 0.34 0.68 0 0 Z " fill="#F0F0EF" transform="translate(254,546)"/>
<path d="M0 0 C3 1 3 1 3 1 Z " fill="#F0F0F0" transform="translate(244,546)"/>
<path d="M0 0 C3 1 3 1 3 1 Z " fill="#EAE9EA" transform="translate(826,528)"/>
<path d="" fill="#EDECEB" transform="translate(0,0)"/>
<path d="M0 0 C0.66 0 1.32 0 2 0 C1.67 0.66 1.34 1.32 1 2 C0.67 1.34 0.34 0.68 0 0 Z " fill="#EBECED" transform="translate(814,489)"/>
<path d="M0 0 C0.99 0.495 0.99 0.495 2 1 C1.01 1.495 1.01 1.495 0 2 C0 1.34 0 0.68 0 0 Z " fill="#EEEFEE" transform="translate(212,486)"/>
<path d="M0 0 C0.99 0.495 0.99 0.495 2 1 C1.01 1.495 1.01 1.495 0 2 C0 1.34 0 0.68 0 0 Z " fill="#F4F6F3" transform="translate(559,462)"/>
<path d="" fill="#F4F2F5" transform="translate(0,0)"/>
<path d="" fill="#F1F3F4" transform="translate(0,0)"/>
<path d="M0 0 C0.99 0.495 0.99 0.495 2 1 C1.01 1.495 1.01 1.495 0 2 C0 1.34 0 0.68 0 0 Z " fill="#F1F2F2" transform="translate(251,382)"/>
<path d="M0 0 C0.99 0.495 0.99 0.495 2 1 C1.01 1.495 1.01 1.495 0 2 C0 1.34 0 0.68 0 0 Z " fill="#F7F6F6" transform="translate(365,382)"/>
<path d="" fill="#F7F6F6" transform="translate(0,0)"/>
<path d="" fill="#F4F5F5" transform="translate(0,0)"/>
<path d="M0 0 C0.66 0 1.32 0 2 0 C1.67 0.66 1.34 1.32 1 2 C0.67 1.34 0.34 0.68 0 0 Z " fill="#F5F4F3" transform="translate(625,364)"/>
<path d="M0 0 C3 1 3 1 3 1 Z " fill="#F3F3F4" transform="translate(523,364)"/>
<path d="M0 0 C3 1 3 1 3 1 Z " fill="#F2F4F5" transform="translate(516,364)"/>
<path d="M0 0 C0.66 0 1.32 0 2 0 C1.67 0.66 1.34 1.32 1 2 C0.67 1.34 0.34 0.68 0 0 Z " fill="#EDEFF0" transform="translate(709,360)"/>
<path d="M0 0 C0.66 0 1.32 0 2 0 C1.67 0.66 1.34 1.32 1 2 C0.67 1.34 0.34 0.68 0 0 Z " fill="#E8EAEB" transform="translate(208,336)"/>
<path d="M0 0 C0.33 0.66 0.66 1.32 1 2 C0.34 1.67 -0.32 1.34 -1 1 C-0.67 0.67 -0.34 0.34 0 0 Z " fill="#F5F6F5" transform="translate(445,277)"/>
<path d="M0 0 C3 1 3 1 3 1 Z " fill="#F9F8F7" transform="translate(304,275)"/>
<path d="M0 0 C3 1 3 1 3 1 Z " fill="#F3F2F4" transform="translate(275,272)"/>
<path d="M0 0 C3 1 3 1 3 1 Z " fill="#F4F2F3" transform="translate(527,261)"/>
<path d="M0 0 C0.99 0.495 0.99 0.495 2 1 C1.01 1.495 1.01 1.495 0 2 C0 1.34 0 0.68 0 0 Z " fill="#ECEBEB" transform="translate(580,246)"/>
<path d="M0 0 C3 1 3 1 3 1 Z " fill="#F0F0F1" transform="translate(482,173)"/>
<path d="M0 0 C2 1 2 1 2 1 Z " fill="#EDEEEF" transform="translate(635,867)"/>
<path d="M0 0 C2 1 2 1 2 1 Z " fill="#E7E6E8" transform="translate(695,863)"/>
<path d="M0 0 C2 1 2 1 2 1 Z " fill="#E9EAEA" transform="translate(488,853)"/>
<path d="M0 0 C2 1 2 1 2 1 Z " fill="#EFF0F0" transform="translate(619,851)"/>
<path d="M0 0 C2 1 2 1 2 1 Z " fill="#EBECEB" transform="translate(488,851)"/>
<path d="" fill="#E9E9E8" transform="translate(0,0)"/>
<path d="" fill="#E8E8E7" transform="translate(0,0)"/>
<path d="" fill="#F2F2F2" transform="translate(0,0)"/>
<path d="" fill="#E9EBEC" transform="translate(0,0)"/>
<path d="" fill="#F2F1F1" transform="translate(0,0)"/>
<path d="M0 0 C2 1 2 1 2 1 Z " fill="#EFF2F2" transform="translate(468,764)"/>
<path d="M0 0 C2 1 2 1 2 1 Z " fill="#EFF1F0" transform="translate(592,744)"/>
<path d="M0 0 C2 1 2 1 2 1 Z " fill="#F3F5F5" transform="translate(731,742)"/>
<path d="" fill="#EAEAEA" transform="translate(0,0)"/>
<path d="" fill="#EAEAEB" transform="translate(0,0)"/>
<path d="" fill="#ECEBEB" transform="translate(0,0)"/>
<path d="" fill="#F2F2F2" transform="translate(0,0)"/>
<path d="M0 0 C2 1 2 1 2 1 Z " fill="#ECEBEB" transform="translate(332,662)"/>
<path d="M0 0 C2 1 2 1 2 1 Z " fill="#EDEEEF" transform="translate(329,658)"/>
<path d="M0 0 C2 1 2 1 2 1 Z " fill="#F3F4F4" transform="translate(455,655)"/>
<path d="" fill="#F5F5F6" transform="translate(0,0)"/>
<path d="M0 0 C2 1 2 1 2 1 Z " fill="#E4E6E8" transform="translate(304,640)"/>
<path d="" fill="#F5F4F5" transform="translate(0,0)"/>
<path d="" fill="#F0EFEE" transform="translate(0,0)"/>
<path d="" fill="#F1F2F2" transform="translate(0,0)"/>
<path d="" fill="#F3F1F2" transform="translate(0,0)"/>
<path d="" fill="#F0F0EF" transform="translate(0,0)"/>
<path d="M0 0 C2 1 2 1 2 1 Z " fill="#F6F5F6" transform="translate(665,565)"/>
<path d="M0 0 C2 1 2 1 2 1 Z " fill="#F8F6F9" transform="translate(483,564)"/>
<path d="M0 0 C2 1 2 1 2 1 Z " fill="#EAEBEA" transform="translate(821,558)"/>
<path d="M0 0 C2 1 2 1 2 1 Z " fill="#F6F7F6" transform="translate(660,551)"/>
<path d="M0 0 C2 1 2 1 2 1 Z " fill="#F5F6F5" transform="translate(437,548)"/>
<path d="" fill="#F3F4F4" transform="translate(0,0)"/>
<path d="" fill="#F7F7F7" transform="translate(0,0)"/>
<path d="" fill="#F1F4F3" transform="translate(0,0)"/>
<path d="" fill="#E8EAEC" transform="translate(0,0)"/>
<path d="" fill="#F3F4F4" transform="translate(0,0)"/>
<path d="" fill="#F4F4F5" transform="translate(0,0)"/>
<path d="" fill="#F3F5F4" transform="translate(0,0)"/>
<path d="" fill="#F6F9F9" transform="translate(0,0)"/>
<path d="" fill="#EDEBED" transform="translate(0,0)"/>
<path d="" fill="#F0F1F2" transform="translate(0,0)"/>
<path d="" fill="#EBECEC" transform="translate(0,0)"/>
<path d="M0 0 C2 1 2 1 2 1 Z " fill="#F5F5F5" transform="translate(373,481)"/>
<path d="" fill="#F5F6F4" transform="translate(0,0)"/>
<path d="" fill="#E7E9E9" transform="translate(0,0)"/>
<path d="M0 0 C2 1 2 1 2 1 Z " fill="#F5F5F3" transform="translate(745,475)"/>
<path d="" fill="#E5E7E9" transform="translate(0,0)"/>
<path d="M0 0 C2 1 2 1 2 1 Z " fill="#F5F7F7" transform="translate(725,464)"/>
<path d="M0 0 C2 1 2 1 2 1 Z " fill="#F4F6F6" transform="translate(543,459)"/>
<path d="M0 0 C2 1 2 1 2 1 Z " fill="#F4F5F5" transform="translate(365,458)"/>
<path d="" fill="#F3F8F7" transform="translate(0,0)"/>
<path d="" fill="#F6F5F3" transform="translate(0,0)"/>
<path d="" fill="#F4F7F4" transform="translate(0,0)"/>
<path d="" fill="#EEEDEE" transform="translate(0,0)"/>
<path d="" fill="#EEF1F2" transform="translate(0,0)"/>
<path d="" fill="#F0F3F3" transform="translate(0,0)"/>
<path d="M0 0 C2 1 2 1 2 1 Z " fill="#F2F2F3" transform="translate(448,401)"/>
<path d="" fill="#F1F2F1" transform="translate(0,0)"/>
<path d="" fill="#F6F6F4" transform="translate(0,0)"/>
<path d="" fill="#F2F4F4" transform="translate(0,0)"/>
<path d="" fill="#F4F3F5" transform="translate(0,0)"/>
<path d="M0 0 C2 1 2 1 2 1 Z " fill="#F2F2F2" transform="translate(609,376)"/>
<path d="M0 0 C2 1 2 1 2 1 Z " fill="#F0F2F1" transform="translate(597,376)"/>
<path d="M0 0 C2 1 2 1 2 1 Z " fill="#F2F2F1" transform="translate(465,376)"/>
<path d="" fill="#F0F1EF" transform="translate(0,0)"/>
<path d="" fill="#F4F5F6" transform="translate(0,0)"/>
<path d="M0 0 C2 1 2 1 2 1 Z " fill="#F2F2F0" transform="translate(235,370)"/>
<path d="M0 0 C2 1 2 1 2 1 Z " fill="#F2F3F3" transform="translate(539,365)"/>
<path d="M0 0 C2 1 2 1 2 1 Z " fill="#F6F7F7" transform="translate(532,365)"/>
<path d="M0 0 C2 1 2 1 2 1 Z " fill="#F4F4F5" transform="translate(502,360)"/>
<path d="" fill="#EAEFEF" transform="translate(0,0)"/>
<path d="" fill="#F4F4F4" transform="translate(0,0)"/>
<path d="" fill="#EEEDED" transform="translate(0,0)"/>
<path d="" fill="#F0F1F2" transform="translate(0,0)"/>
<path d="" fill="#ECECEE" transform="translate(0,0)"/>
<path d="" fill="#E9E9EA" transform="translate(0,0)"/>
<path d="" fill="#F4F3F3" transform="translate(0,0)"/>
<path d="" fill="#ECECEB" transform="translate(0,0)"/>
<path d="" fill="#F2F4F2" transform="translate(0,0)"/>
<path d="M0 0 C2 1 2 1 2 1 Z " fill="#F2F5F4" transform="translate(451,275)"/>
<path d="M0 0 C2 1 2 1 2 1 Z " fill="#F6F4F3" transform="translate(286,273)"/>
<path d="M0 0 C2 1 2 1 2 1 Z " fill="#F2F5F4" transform="translate(465,269)"/>
<path d="M0 0 C2 1 2 1 2 1 Z " fill="#EDEEEC" transform="translate(251,269)"/>
<path d="M0 0 C2 1 2 1 2 1 Z " fill="#F4F5F4" transform="translate(476,268)"/>
<path d="M0 0 C2 1 2 1 2 1 Z " fill="#F4F6F6" transform="translate(468,268)"/>
<path d="M0 0 C2 1 2 1 2 1 Z " fill="#F1F1F1" transform="translate(547,263)"/>
<path d="M0 0 C2 1 2 1 2 1 Z " fill="#F3F6F4" transform="translate(492,262)"/>
<path d="M0 0 C2 1 2 1 2 1 Z " fill="#F6F2F3" transform="translate(545,261)"/>
<path d="" fill="#EDEEF0" transform="translate(0,0)"/>
<path d="" fill="#F0F1F0" transform="translate(0,0)"/>
<path d="" fill="#F4F2F5" transform="translate(0,0)"/>
<path d="" fill="#EBEBEB" transform="translate(0,0)"/>
<path d="" fill="#F0F0F0" transform="translate(0,0)"/>
<path d="" fill="#EAE9E8" transform="translate(0,0)"/>
<path d="M0 0 C2 1 2 1 2 1 Z " fill="#EEF0EE" transform="translate(320,172)"/>
<path d="" fill="#F5F4F5" transform="translate(0,0)"/>
<path d="M0 0 C2 1 2 1 2 1 Z " fill="#E9E7EA" transform="translate(324,168)"/>
<path d="" fill="#EFF1F3" transform="translate(0,0)"/>
<path d="M0 0 C2 1 2 1 2 1 Z " fill="#EDEDED" transform="translate(350,152)"/>
<path d="M0 0 C2 1 2 1 2 1 Z " fill="#E7E8E8" transform="translate(388,137)"/>
<path d="" fill="#616061" transform="translate(0,0)"/>
<path d="" fill="#5E5E5D" transform="translate(0,0)"/>
<path d="" fill="#706F70" transform="translate(0,0)"/>
<path d="" fill="#626262" transform="translate(0,0)"/>
<path d="" fill="#5F5E5E" transform="translate(0,0)"/>
<path d="" fill="#5C5B5B" transform="translate(0,0)"/>
<path d="" fill="#6B6B6C" transform="translate(0,0)"/>
<path d="" fill="#5C5D5D" transform="translate(0,0)"/>
<path d="" fill="#646463" transform="translate(0,0)"/>
<path d="" fill="#545555" transform="translate(0,0)"/>
<path d="" fill="#838384" transform="translate(0,0)"/>
<path d="" fill="#9E9DA1" transform="translate(0,0)"/>
<path d="" fill="#5F6061" transform="translate(0,0)"/>
<path d="" fill="#545454" transform="translate(0,0)"/>
<path d="" fill="#747575" transform="translate(0,0)"/>
<path d="" fill="#60615F" transform="translate(0,0)"/>
<path d="" fill="#868688" transform="translate(0,0)"/>
<path d="" fill="#89898A" transform="translate(0,0)"/>
<path d="" fill="#EAEBE9" transform="translate(0,0)"/>
<path d="" fill="#E5E6E7" transform="translate(0,0)"/>
<path d="" fill="#68696A" transform="translate(0,0)"/>
<path d="" fill="#E5E6E5" transform="translate(0,0)"/>
<path d="" fill="#E7E8E7" transform="translate(0,0)"/>
<path d="" fill="#EAE7E6" transform="translate(0,0)"/>
<path d="" fill="#EAE9E8" transform="translate(0,0)"/>
<path d="" fill="#E7E8E9" transform="translate(0,0)"/>
<path d="" fill="#E7E9E9" transform="translate(0,0)"/>
<path d="" fill="#E6E8E8" transform="translate(0,0)"/>
<path d="" fill="#EDEDEF" transform="translate(0,0)"/>
<path d="" fill="#EBECED" transform="translate(0,0)"/>
<path d="" fill="#EAEAE9" transform="translate(0,0)"/>
<path d="" fill="#EBEDEB" transform="translate(0,0)"/>
<path d="" fill="#EAEDEB" transform="translate(0,0)"/>
<path d="" fill="#ECEEEF" transform="translate(0,0)"/>
<path d="" fill="#EFF1F0" transform="translate(0,0)"/>
<path d="" fill="#E6E7E8" transform="translate(0,0)"/>
<path d="" fill="#676866" transform="translate(0,0)"/>
<path d="" fill="#E5E7E6" transform="translate(0,0)"/>
<path d="" fill="#F1F1EF" transform="translate(0,0)"/>
<path d="" fill="#E7E9E9" transform="translate(0,0)"/>
<path d="" fill="#EDEEEE" transform="translate(0,0)"/>
<path d="" fill="#EAEBEC" transform="translate(0,0)"/>
<path d="" fill="#ECECEC" transform="translate(0,0)"/>
<path d="" fill="#EBECEC" transform="translate(0,0)"/>
<path d="" fill="#EBECED" transform="translate(0,0)"/>
<path d="" fill="#F0F0F1" transform="translate(0,0)"/>
<path d="" fill="#EFEEEE" transform="translate(0,0)"/>
<path d="" fill="#EBEDEB" transform="translate(0,0)"/>
<path d="" fill="#ECEEEE" transform="translate(0,0)"/>
<path d="" fill="#EEEFEE" transform="translate(0,0)"/>
<path d="" fill="#EAEBEB" transform="translate(0,0)"/>
<path d="" fill="#EAEAEA" transform="translate(0,0)"/>
<path d="" fill="#EEEEEE" transform="translate(0,0)"/>
<path d="" fill="#EFF0EF" transform="translate(0,0)"/>
<path d="" fill="#EFF0EF" transform="translate(0,0)"/>
<path d="" fill="#E4E8EA" transform="translate(0,0)"/>
<path d="" fill="#DFE0E0" transform="translate(0,0)"/>
<path d="" fill="#E3E7EA" transform="translate(0,0)"/>
<path d="" fill="#E2E4E4" transform="translate(0,0)"/>
<path d="" fill="#F1F0F3" transform="translate(0,0)"/>
<path d="" fill="#F0F0F1" transform="translate(0,0)"/>
<path d="" fill="#F5F3F2" transform="translate(0,0)"/>
<path d="" fill="#EFEFEE" transform="translate(0,0)"/>
<path d="" fill="#F5F1F5" transform="translate(0,0)"/>
<path d="" fill="#F1F1F6" transform="translate(0,0)"/>
<path d="" fill="#EBEBEC" transform="translate(0,0)"/>
<path d="" fill="#F4F4F5" transform="translate(0,0)"/>
<path d="" fill="#F5F3F4" transform="translate(0,0)"/>
<path d="" fill="#E5E2E6" transform="translate(0,0)"/>
<path d="" fill="#F5F3F4" transform="translate(0,0)"/>
<path d="" fill="#F2F5F3" transform="translate(0,0)"/>
<path d="" fill="#EFEEF0" transform="translate(0,0)"/>
<path d="" fill="#E5E5E7" transform="translate(0,0)"/>
<path d="" fill="#EFF0EF" transform="translate(0,0)"/>
<path d="" fill="#F0F0F3" transform="translate(0,0)"/>
<path d="" fill="#E5E5E4" transform="translate(0,0)"/>
<path d="" fill="#F2F0F2" transform="translate(0,0)"/>
<path d="" fill="#E1E4E6" transform="translate(0,0)"/>
<path d="" fill="#EEEDED" transform="translate(0,0)"/>
<path d="" fill="#EBEBEA" transform="translate(0,0)"/>
<path d="" fill="#EBEDEC" transform="translate(0,0)"/>
<path d="" fill="#EAEDEC" transform="translate(0,0)"/>
<path d="" fill="#EFEEEF" transform="translate(0,0)"/>
<path d="" fill="#E9EAEB" transform="translate(0,0)"/>
<path d="" fill="#F2EFF1" transform="translate(0,0)"/>
<path d="" fill="#ECF0EF" transform="translate(0,0)"/>
<path d="" fill="#F1F1EF" transform="translate(0,0)"/>
<path d="" fill="#F8F7F7" transform="translate(0,0)"/>
<path d="" fill="#EEEFEF" transform="translate(0,0)"/>
<path d="" fill="#EBEBEB" transform="translate(0,0)"/>
<path d="" fill="#F2EBEF" transform="translate(0,0)"/>
<path d="" fill="#F2F5F6" transform="translate(0,0)"/>
<path d="" fill="#F5F4F7" transform="translate(0,0)"/>
<path d="" fill="#ECEAEB" transform="translate(0,0)"/>
<path d="" fill="#F3F3F5" transform="translate(0,0)"/>
<path d="" fill="#ECEEEE" transform="translate(0,0)"/>
<path d="" fill="#F0F0F1" transform="translate(0,0)"/>
<path d="" fill="#EBEEEC" transform="translate(0,0)"/>
<path d="" fill="#F5F7F4" transform="translate(0,0)"/>
<path d="" fill="#F4F4F5" transform="translate(0,0)"/>
<path d="" fill="#EAE9E9" transform="translate(0,0)"/>
<path d="" fill="#8C8C8B" transform="translate(0,0)"/>
<path d="" fill="#F2F3F1" transform="translate(0,0)"/>
<path d="" fill="#F3F2F2" transform="translate(0,0)"/>
<path d="" fill="#F1F0F0" transform="translate(0,0)"/>
<path d="" fill="#EFF0F2" transform="translate(0,0)"/>
<path d="" fill="#F2F0F2" transform="translate(0,0)"/>
<path d="" fill="#F0F1F2" transform="translate(0,0)"/>
<path d="" fill="#F5F3F6" transform="translate(0,0)"/>
<path d="" fill="#F0F3F2" transform="translate(0,0)"/>
<path d="" fill="#F4F4F3" transform="translate(0,0)"/>
<path d="" fill="#F3F2F2" transform="translate(0,0)"/>
<path d="" fill="#F3F3F3" transform="translate(0,0)"/>
<path d="" fill="#F4F2F2" transform="translate(0,0)"/>
<path d="" fill="#F4F5F6" transform="translate(0,0)"/>
<path d="" fill="#F1F5F3" transform="translate(0,0)"/>
<path d="" fill="#F5F4F4" transform="translate(0,0)"/>
<path d="" fill="#868787" transform="translate(0,0)"/>
<path d="" fill="#ECEEEF" transform="translate(0,0)"/>
<path d="" fill="#E6E5E8" transform="translate(0,0)"/>
<path d="" fill="#EDEFEF" transform="translate(0,0)"/>
<path d="" fill="#EFF0F0" transform="translate(0,0)"/>
<path d="" fill="#EBECEB" transform="translate(0,0)"/>
<path d="" fill="#EEEBED" transform="translate(0,0)"/>
<path d="" fill="#F3F4F4" transform="translate(0,0)"/>
<path d="" fill="#F3F1F2" transform="translate(0,0)"/>
<path d="" fill="#F2F0EF" transform="translate(0,0)"/>
<path d="" fill="#F1F0F0" transform="translate(0,0)"/>
<path d="" fill="#F8FAF6" transform="translate(0,0)"/>
<path d="" fill="#F5F4F5" transform="translate(0,0)"/>
<path d="" fill="#F3F7F9" transform="translate(0,0)"/>
<path d="" fill="#F7F8F5" transform="translate(0,0)"/>
<path d="" fill="#F5F4F1" transform="translate(0,0)"/>
<path d="" fill="#F3F2F2" transform="translate(0,0)"/>
<path d="" fill="#F6F7F7" transform="translate(0,0)"/>
<path d="" fill="#F4F5F6" transform="translate(0,0)"/>
<path d="" fill="#8A8B8C" transform="translate(0,0)"/>
<path d="" fill="#E7E8E8" transform="translate(0,0)"/>
<path d="" fill="#F7F5F4" transform="translate(0,0)"/>
<path d="" fill="#F3F6F6" transform="translate(0,0)"/>
<path d="" fill="#F5F6F7" transform="translate(0,0)"/>
<path d="" fill="#F3F3F5" transform="translate(0,0)"/>
<path d="" fill="#EBECE9" transform="translate(0,0)"/>
<path d="" fill="#F6F3F7" transform="translate(0,0)"/>
<path d="" fill="#F5F6F5" transform="translate(0,0)"/>
<path d="" fill="#F2EFF3" transform="translate(0,0)"/>
<path d="" fill="#E8E8EB" transform="translate(0,0)"/>
<path d="" fill="#E8EAEA" transform="translate(0,0)"/>
<path d="" fill="#F5F4F5" transform="translate(0,0)"/>
<path d="" fill="#E7E7E9" transform="translate(0,0)"/>
<path d="" fill="#F4F3F6" transform="translate(0,0)"/>
<path d="" fill="#F2F3F5" transform="translate(0,0)"/>
<path d="" fill="#ECEEED" transform="translate(0,0)"/>
<path d="" fill="#E9E9EE" transform="translate(0,0)"/>
<path d="" fill="#F1F3F4" transform="translate(0,0)"/>
<path d="" fill="#F3F2F3" transform="translate(0,0)"/>
<path d="" fill="#EFEFF1" transform="translate(0,0)"/>
<path d="" fill="#FAF8F5" transform="translate(0,0)"/>
<path d="" fill="#F5F7F4" transform="translate(0,0)"/>
<path d="" fill="#F4F5F3" transform="translate(0,0)"/>
<path d="" fill="#F4F4F6" transform="translate(0,0)"/>
<path d="" fill="#EBE9E9" transform="translate(0,0)"/>
<path d="" fill="#F2F3F3" transform="translate(0,0)"/>
<path d="" fill="#EAEAEA" transform="translate(0,0)"/>
<path d="" fill="#F1F2F1" transform="translate(0,0)"/>
<path d="" fill="#E4E4E4" transform="translate(0,0)"/>
<path d="" fill="#E5E5E5" transform="translate(0,0)"/>
<path d="" fill="#F3F7F4" transform="translate(0,0)"/>
<path d="" fill="#E1E4E2" transform="translate(0,0)"/>
<path d="" fill="#F6F5F6" transform="translate(0,0)"/>
<path d="" fill="#F7F7F5" transform="translate(0,0)"/>
<path d="" fill="#ECEFEF" transform="translate(0,0)"/>
<path d="" fill="#F8F7F6" transform="translate(0,0)"/>
<path d="" fill="#F1F1F1" transform="translate(0,0)"/>
<path d="" fill="#ECEBED" transform="translate(0,0)"/>
<path d="" fill="#E8E9E9" transform="translate(0,0)"/>
<path d="" fill="#EDEDEF" transform="translate(0,0)"/>
<path d="" fill="#E3E6E7" transform="translate(0,0)"/>
<path d="" fill="#EDF1F2" transform="translate(0,0)"/>
<path d="" fill="#F1F1F1" transform="translate(0,0)"/>
<path d="" fill="#F2F1F1" transform="translate(0,0)"/>
<path d="" fill="#F2F4F2" transform="translate(0,0)"/>
<path d="" fill="#EDEDED" transform="translate(0,0)"/>
<path d="" fill="#F4F6F3" transform="translate(0,0)"/>
<path d="" fill="#F3F7F3" transform="translate(0,0)"/>
<path d="" fill="#F0F2F3" transform="translate(0,0)"/>
<path d="" fill="#F4F4F6" transform="translate(0,0)"/>
<path d="" fill="#F5F7F8" transform="translate(0,0)"/>
<path d="" fill="#F0F2F1" transform="translate(0,0)"/>
<path d="" fill="#F4F4F7" transform="translate(0,0)"/>
<path d="" fill="#EAECEC" transform="translate(0,0)"/>
<path d="" fill="#EFEEEB" transform="translate(0,0)"/>
<path d="" fill="#F6F7F6" transform="translate(0,0)"/>
<path d="" fill="#EDECED" transform="translate(0,0)"/>
<path d="" fill="#F8F8F7" transform="translate(0,0)"/>
<path d="" fill="#F5F6F6" transform="translate(0,0)"/>
<path d="" fill="#F7F7F8" transform="translate(0,0)"/>
<path d="" fill="#F5F3F4" transform="translate(0,0)"/>
<path d="" fill="#F5F5F4" transform="translate(0,0)"/>
<path d="" fill="#EDEEEE" transform="translate(0,0)"/>
<path d="" fill="#EDEFEF" transform="translate(0,0)"/>
<path d="" fill="#E4E6E4" transform="translate(0,0)"/>
<path d="" fill="#F4F6F6" transform="translate(0,0)"/>
<path d="" fill="#ECECED" transform="translate(0,0)"/>
<path d="" fill="#FAFAF9" transform="translate(0,0)"/>
<path d="" fill="#E4E6E6" transform="translate(0,0)"/>
<path d="" fill="#ECEBEE" transform="translate(0,0)"/>
<path d="" fill="#EFEFF0" transform="translate(0,0)"/>
<path d="" fill="#F2F3F3" transform="translate(0,0)"/>
<path d="" fill="#F3F4F3" transform="translate(0,0)"/>
<path d="" fill="#F5F5F6" transform="translate(0,0)"/>
<path d="" fill="#F4F4F1" transform="translate(0,0)"/>
<path d="" fill="#E7E8E7" transform="translate(0,0)"/>
<path d="" fill="#F1F6F6" transform="translate(0,0)"/>
<path d="" fill="#F1F2F3" transform="translate(0,0)"/>
<path d="" fill="#F9FBF9" transform="translate(0,0)"/>
<path d="" fill="#F9F7F8" transform="translate(0,0)"/>
<path d="" fill="#F6F6F6" transform="translate(0,0)"/>
<path d="" fill="#FAF8FB" transform="translate(0,0)"/>
<path d="" fill="#F6F7F8" transform="translate(0,0)"/>
<path d="" fill="#F3F3F2" transform="translate(0,0)"/>
<path d="" fill="#F4F5F5" transform="translate(0,0)"/>
<path d="" fill="#F1F3F2" transform="translate(0,0)"/>
<path d="" fill="#F2F3F4" transform="translate(0,0)"/>
<path d="" fill="#F5F7F6" transform="translate(0,0)"/>
<path d="" fill="#EFEFEF" transform="translate(0,0)"/>
<path d="" fill="#807F7E" transform="translate(0,0)"/>
<path d="" fill="#F7FBFB" transform="translate(0,0)"/>
<path d="" fill="#EFEEF1" transform="translate(0,0)"/>
<path d="" fill="#EAEFEB" transform="translate(0,0)"/>
<path d="" fill="#F8F7F7" transform="translate(0,0)"/>
<path d="" fill="#F0F0F4" transform="translate(0,0)"/>
<path d="" fill="#F0F1EF" transform="translate(0,0)"/>
<path d="" fill="#F3F6F6" transform="translate(0,0)"/>
<path d="" fill="#EFF0F0" transform="translate(0,0)"/>
<path d="" fill="#F1F3F3" transform="translate(0,0)"/>
<path d="" fill="#F3F2F2" transform="translate(0,0)"/>
<path d="" fill="#F0F0F1" transform="translate(0,0)"/>
<path d="" fill="#F3F3F4" transform="translate(0,0)"/>
<path d="" fill="#F1F2F5" transform="translate(0,0)"/>
<path d="" fill="#F4F2F6" transform="translate(0,0)"/>
<path d="" fill="#F2F3F4" transform="translate(0,0)"/>
<path d="" fill="#F4F3F4" transform="translate(0,0)"/>
<path d="" fill="#EEF2F2" transform="translate(0,0)"/>
<path d="" fill="#F6F8F5" transform="translate(0,0)"/>
<path d="" fill="#F4F3F5" transform="translate(0,0)"/>
<path d="" fill="#F2F2F1" transform="translate(0,0)"/>
<path d="" fill="#F7FAF6" transform="translate(0,0)"/>
<path d="" fill="#F0F2F1" transform="translate(0,0)"/>
<path d="" fill="#F3F3F6" transform="translate(0,0)"/>
<path d="" fill="#EFEEEC" transform="translate(0,0)"/>
<path d="" fill="#F1F4F0" transform="translate(0,0)"/>
<path d="" fill="#F5F8F1" transform="translate(0,0)"/>
<path d="" fill="#F7F7F5" transform="translate(0,0)"/>
<path d="" fill="#F6F6F7" transform="translate(0,0)"/>
<path d="" fill="#EEEEEE" transform="translate(0,0)"/>
<path d="" fill="#F5F6F3" transform="translate(0,0)"/>
<path d="" fill="#F4F4F9" transform="translate(0,0)"/>
<path d="" fill="#F2EFEF" transform="translate(0,0)"/>
<path d="" fill="#F6F6F5" transform="translate(0,0)"/>
<path d="" fill="#F5F5F5" transform="translate(0,0)"/>
<path d="" fill="#F3F6F7" transform="translate(0,0)"/>
<path d="" fill="#F5F5F6" transform="translate(0,0)"/>
<path d="" fill="#F5F7F8" transform="translate(0,0)"/>
<path d="" fill="#F3F4F3" transform="translate(0,0)"/>
<path d="" fill="#F2F4F5" transform="translate(0,0)"/>
<path d="" fill="#F3F8F5" transform="translate(0,0)"/>
<path d="" fill="#F4F4F3" transform="translate(0,0)"/>
<path d="" fill="#F1F1F2" transform="translate(0,0)"/>
<path d="" fill="#EDECED" transform="translate(0,0)"/>
<path d="" fill="#FAF7F8" transform="translate(0,0)"/>
<path d="" fill="#F7F5F6" transform="translate(0,0)"/>
<path d="" fill="#F7F7F7" transform="translate(0,0)"/>
<path d="" fill="#F8F7F8" transform="translate(0,0)"/>
<path d="" fill="#F7F9F7" transform="translate(0,0)"/>
<path d="" fill="#F5F4F6" transform="translate(0,0)"/>
<path d="" fill="#F1F5F5" transform="translate(0,0)"/>
<path d="" fill="#999A9C" transform="translate(0,0)"/>
<path d="" fill="#EDF0ED" transform="translate(0,0)"/>
<path d="" fill="#F1F3F2" transform="translate(0,0)"/>
<path d="" fill="#F4F5F6" transform="translate(0,0)"/>
<path d="" fill="#F2F0F1" transform="translate(0,0)"/>
<path d="" fill="#F6F5F6" transform="translate(0,0)"/>
<path d="" fill="#F3F5F3" transform="translate(0,0)"/>
<path d="" fill="#E7E6E7" transform="translate(0,0)"/>
<path d="" fill="#E8E8E7" transform="translate(0,0)"/>
<path d="" fill="#F8F8F8" transform="translate(0,0)"/>
<path d="" fill="#F3F4F4" transform="translate(0,0)"/>
<path d="" fill="#EAEAE9" transform="translate(0,0)"/>
<path d="" fill="#F5F3F5" transform="translate(0,0)"/>
<path d="" fill="#F7F5F7" transform="translate(0,0)"/>
<path d="" fill="#F7F3F5" transform="translate(0,0)"/>
<path d="" fill="#F0F0F1" transform="translate(0,0)"/>
<path d="" fill="#F2F1F0" transform="translate(0,0)"/>
<path d="" fill="#F1F4F1" transform="translate(0,0)"/>
<path d="" fill="#F2F1F4" transform="translate(0,0)"/>
<path d="" fill="#F5F4F3" transform="translate(0,0)"/>
<path d="" fill="#F4F1F4" transform="translate(0,0)"/>
<path d="" fill="#F8FAFA" transform="translate(0,0)"/>
<path d="" fill="#EAE8EB" transform="translate(0,0)"/>
<path d="" fill="#F9F9F7" transform="translate(0,0)"/>
<path d="" fill="#F3F0F4" transform="translate(0,0)"/>
<path d="" fill="#F4F6F4" transform="translate(0,0)"/>
<path d="" fill="#EEEEEE" transform="translate(0,0)"/>
<path d="" fill="#F7F7F8" transform="translate(0,0)"/>
<path d="" fill="#F4F5F4" transform="translate(0,0)"/>
<path d="" fill="#EFF0F0" transform="translate(0,0)"/>
<path d="" fill="#E9E7E8" transform="translate(0,0)"/>
<path d="" fill="#EAEDEC" transform="translate(0,0)"/>
<path d="" fill="#F4F4F3" transform="translate(0,0)"/>
<path d="" fill="#ECEBEB" transform="translate(0,0)"/>
<path d="" fill="#F7F8F7" transform="translate(0,0)"/>
<path d="" fill="#ECEBEE" transform="translate(0,0)"/>
<path d="" fill="#EAE9E9" transform="translate(0,0)"/>
<path d="" fill="#F5F6F6" transform="translate(0,0)"/>
<path d="" fill="#F6F4F4" transform="translate(0,0)"/>
<path d="" fill="#EBEDED" transform="translate(0,0)"/>
<path d="" fill="#F5F5F4" transform="translate(0,0)"/>
<path d="" fill="#F1EDEF" transform="translate(0,0)"/>
<path d="" fill="#F6F3F5" transform="translate(0,0)"/>
<path d="" fill="#F6F4F5" transform="translate(0,0)"/>
<path d="" fill="#F9F3F5" transform="translate(0,0)"/>
<path d="" fill="#F3F2F6" transform="translate(0,0)"/>
<path d="" fill="#F3F3F1" transform="translate(0,0)"/>
<path d="" fill="#E4E8E9" transform="translate(0,0)"/>
<path d="" fill="#F0F2F0" transform="translate(0,0)"/>
<path d="" fill="#F8FBF6" transform="translate(0,0)"/>
<path d="" fill="#F7F8F6" transform="translate(0,0)"/>
<path d="" fill="#EFF0EE" transform="translate(0,0)"/>
<path d="" fill="#E9EAEC" transform="translate(0,0)"/>
<path d="" fill="#F5F2F5" transform="translate(0,0)"/>
<path d="" fill="#F2F3F5" transform="translate(0,0)"/>
<path d="" fill="#F5F3F9" transform="translate(0,0)"/>
<path d="" fill="#F2F2F4" transform="translate(0,0)"/>
<path d="" fill="#F3F5F6" transform="translate(0,0)"/>
<path d="" fill="#F5F4F4" transform="translate(0,0)"/>
<path d="" fill="#F7F7F5" transform="translate(0,0)"/>
<path d="" fill="#F6F6F5" transform="translate(0,0)"/>
<path d="" fill="#F4F5F6" transform="translate(0,0)"/>
<path d="" fill="#F6F7F8" transform="translate(0,0)"/>
<path d="" fill="#E7E7E9" transform="translate(0,0)"/>
<path d="" fill="#8E8C8D" transform="translate(0,0)"/>
<path d="" fill="#EEEFF0" transform="translate(0,0)"/>
<path d="" fill="#EDECEE" transform="translate(0,0)"/>
<path d="" fill="#F3F5F6" transform="translate(0,0)"/>
<path d="" fill="#EDEEED" transform="translate(0,0)"/>
<path d="" fill="#F7F4F6" transform="translate(0,0)"/>
<path d="" fill="#EDF1EF" transform="translate(0,0)"/>
<path d="" fill="#F5F8F6" transform="translate(0,0)"/>
<path d="" fill="#F3F4F4" transform="translate(0,0)"/>
<path d="" fill="#EBEAEC" transform="translate(0,0)"/>
<path d="" fill="#F6F7F6" transform="translate(0,0)"/>
<path d="" fill="#F1F6F5" transform="translate(0,0)"/>
<path d="" fill="#F3F5F5" transform="translate(0,0)"/>
<path d="" fill="#F4F4F7" transform="translate(0,0)"/>
<path d="" fill="#F7F8F7" transform="translate(0,0)"/>
<path d="" fill="#F2F4F2" transform="translate(0,0)"/>
<path d="" fill="#E4E4E5" transform="translate(0,0)"/>
<path d="" fill="#F5F5F6" transform="translate(0,0)"/>
<path d="" fill="#EAEAEC" transform="translate(0,0)"/>
<path d="" fill="#F4F4F5" transform="translate(0,0)"/>
<path d="" fill="#F3F1F0" transform="translate(0,0)"/>
<path d="" fill="#F3F3F4" transform="translate(0,0)"/>
<path d="" fill="#F4F5F5" transform="translate(0,0)"/>
<path d="" fill="#F3F5F4" transform="translate(0,0)"/>
<path d="" fill="#F5F6F6" transform="translate(0,0)"/>
<path d="" fill="#E7E7E8" transform="translate(0,0)"/>
<path d="" fill="#F0F0F1" transform="translate(0,0)"/>
<path d="" fill="#F5F6F7" transform="translate(0,0)"/>
<path d="" fill="#F5F5F8" transform="translate(0,0)"/>
<path d="" fill="#9B9C9B" transform="translate(0,0)"/>
<path d="" fill="#F4F6F3" transform="translate(0,0)"/>
<path d="" fill="#EBE9EB" transform="translate(0,0)"/>
<path d="" fill="#F5F7F8" transform="translate(0,0)"/>
<path d="" fill="#EAE9EC" transform="translate(0,0)"/>
<path d="" fill="#EEECEE" transform="translate(0,0)"/>
<path d="" fill="#F6F7F7" transform="translate(0,0)"/>
<path d="" fill="#F6F7F6" transform="translate(0,0)"/>
<path d="" fill="#F3F2F4" transform="translate(0,0)"/>
<path d="" fill="#F6F3F6" transform="translate(0,0)"/>
<path d="" fill="#F4F5F5" transform="translate(0,0)"/>
<path d="" fill="#F5F6F4" transform="translate(0,0)"/>
<path d="" fill="#F2F1F3" transform="translate(0,0)"/>
<path d="" fill="#F4F7F8" transform="translate(0,0)"/>
<path d="" fill="#F8F9F7" transform="translate(0,0)"/>
<path d="" fill="#F2F3F4" transform="translate(0,0)"/>
<path d="" fill="#EEF3F1" transform="translate(0,0)"/>
<path d="" fill="#F7F6F9" transform="translate(0,0)"/>
<path d="" fill="#ECEFF0" transform="translate(0,0)"/>
<path d="" fill="#F4F6F6" transform="translate(0,0)"/>
<path d="" fill="#F7F4F8" transform="translate(0,0)"/>
<path d="" fill="#F5F4F5" transform="translate(0,0)"/>
<path d="" fill="#F3F4F6" transform="translate(0,0)"/>
<path d="" fill="#F3F5F4" transform="translate(0,0)"/>
<path d="" fill="#F6F7F1" transform="translate(0,0)"/>
<path d="" fill="#EEF1EF" transform="translate(0,0)"/>
<path d="" fill="#F6F8FC" transform="translate(0,0)"/>
<path d="" fill="#F1F5F3" transform="translate(0,0)"/>
<path d="" fill="#F7F5F4" transform="translate(0,0)"/>
<path d="" fill="#F0F3F1" transform="translate(0,0)"/>
<path d="" fill="#EFF1F0" transform="translate(0,0)"/>
<path d="" fill="#F5F3F4" transform="translate(0,0)"/>
<path d="" fill="#F7F4F5" transform="translate(0,0)"/>
<path d="" fill="#F0F2F2" transform="translate(0,0)"/>
<path d="" fill="#F4F2F4" transform="translate(0,0)"/>
<path d="" fill="#F1F3F3" transform="translate(0,0)"/>
<path d="" fill="#F6F5F6" transform="translate(0,0)"/>
<path d="" fill="#F4F6F4" transform="translate(0,0)"/>
<path d="" fill="#F5F5F4" transform="translate(0,0)"/>
<path d="" fill="#F1F3F2" transform="translate(0,0)"/>
<path d="" fill="#F5F5F4" transform="translate(0,0)"/>
<path d="" fill="#F5F6F8" transform="translate(0,0)"/>
<path d="" fill="#F6F8F7" transform="translate(0,0)"/>
<path d="" fill="#F3F5F3" transform="translate(0,0)"/>
<path d="" fill="#828385" transform="translate(0,0)"/>
<path d="" fill="#858483" transform="translate(0,0)"/>
<path d="" fill="#8F8F90" transform="translate(0,0)"/>
<path d="" fill="#F1F5F3" transform="translate(0,0)"/>
<path d="" fill="#818181" transform="translate(0,0)"/>
<path d="" fill="#F5F5F8" transform="translate(0,0)"/>
<path d="" fill="#F6F6F2" transform="translate(0,0)"/>
<path d="" fill="#8F8F8E" transform="translate(0,0)"/>
<path d="" fill="#EEF3F3" transform="translate(0,0)"/>
<path d="" fill="#F2F2F2" transform="translate(0,0)"/>
<path d="" fill="#F4F0F2" transform="translate(0,0)"/>
<path d="" fill="#EEF1EF" transform="translate(0,0)"/>
<path d="" fill="#F2F5F5" transform="translate(0,0)"/>
<path d="" fill="#838382" transform="translate(0,0)"/>
<path d="" fill="#F3F3F3" transform="translate(0,0)"/>
<path d="" fill="#EBECE9" transform="translate(0,0)"/>
<path d="" fill="#F4F4F6" transform="translate(0,0)"/>
<path d="" fill="#F2F5F4" transform="translate(0,0)"/>
<path d="" fill="#E6E9E9" transform="translate(0,0)"/>
<path d="" fill="#EDEFF0" transform="translate(0,0)"/>
<path d="" fill="#F7F4F6" transform="translate(0,0)"/>
<path d="" fill="#F3F5F4" transform="translate(0,0)"/>
<path d="" fill="#E8E8E9" transform="translate(0,0)"/>
<path d="" fill="#F2F2F1" transform="translate(0,0)"/>
<path d="" fill="#F3F7F7" transform="translate(0,0)"/>
<path d="" fill="#F4F4F3" transform="translate(0,0)"/>
<path d="" fill="#EAEDEC" transform="translate(0,0)"/>
<path d="" fill="#F2F5F3" transform="translate(0,0)"/>
<path d="" fill="#F4F2F3" transform="translate(0,0)"/>
<path d="" fill="#7C7D7C" transform="translate(0,0)"/>
<path d="" fill="#F4F6F4" transform="translate(0,0)"/>
<path d="" fill="#F4F3F6" transform="translate(0,0)"/>
<path d="" fill="#EDEDF0" transform="translate(0,0)"/>
<path d="" fill="#F8F7F8" transform="translate(0,0)"/>
<path d="" fill="#F5F4F4" transform="translate(0,0)"/>
<path d="" fill="#F4F4F3" transform="translate(0,0)"/>
<path d="" fill="#F6F6F8" transform="translate(0,0)"/>
<path d="" fill="#F4F6F5" transform="translate(0,0)"/>
<path d="" fill="#F4F3F4" transform="translate(0,0)"/>
<path d="" fill="#F4F5F8" transform="translate(0,0)"/>
<path d="" fill="#F2F1F2" transform="translate(0,0)"/>
<path d="" fill="#F4F4F6" transform="translate(0,0)"/>
<path d="" fill="#F7F5F8" transform="translate(0,0)"/>
<path d="" fill="#F6F7F9" transform="translate(0,0)"/>
<path d="" fill="#F4F5F3" transform="translate(0,0)"/>
<path d="" fill="#EFF2F1" transform="translate(0,0)"/>
<path d="" fill="#F3F4F1" transform="translate(0,0)"/>
<path d="" fill="#F0F3F2" transform="translate(0,0)"/>
<path d="" fill="#F1F2F2" transform="translate(0,0)"/>
<path d="" fill="#E9E9EB" transform="translate(0,0)"/>
<path d="" fill="#F5F7F7" transform="translate(0,0)"/>
<path d="" fill="#F6F6F2" transform="translate(0,0)"/>
<path d="" fill="#F3F8F4" transform="translate(0,0)"/>
<path d="" fill="#F5F7F5" transform="translate(0,0)"/>
<path d="" fill="#EEEEEC" transform="translate(0,0)"/>
<path d="" fill="#F4F5F4" transform="translate(0,0)"/>
<path d="" fill="#F4F5F3" transform="translate(0,0)"/>
<path d="" fill="#F0F5F3" transform="translate(0,0)"/>
<path d="" fill="#EAEAEA" transform="translate(0,0)"/>
<path d="" fill="#F4F4F4" transform="translate(0,0)"/>
<path d="" fill="#F6F5F5" transform="translate(0,0)"/>
<path d="" fill="#F3F1F5" transform="translate(0,0)"/>
<path d="" fill="#F0F2F0" transform="translate(0,0)"/>
<path d="" fill="#F4F4F2" transform="translate(0,0)"/>
<path d="" fill="#F4F1F2" transform="translate(0,0)"/>
<path d="" fill="#EFEEEE" transform="translate(0,0)"/>
<path d="" fill="#F4F4F2" transform="translate(0,0)"/>
<path d="" fill="#F3F4F5" transform="translate(0,0)"/>
<path d="" fill="#EFF0EF" transform="translate(0,0)"/>
<path d="" fill="#EDEFEC" transform="translate(0,0)"/>
<path d="" fill="#7C7B7C" transform="translate(0,0)"/>
<path d="" fill="#F0F0F1" transform="translate(0,0)"/>
<path d="" fill="#F0F0F0" transform="translate(0,0)"/>
<path d="" fill="#F3F6F4" transform="translate(0,0)"/>
<path d="" fill="#EFF2F5" transform="translate(0,0)"/>
<path d="" fill="#F6F7F8" transform="translate(0,0)"/>
<path d="" fill="#F2F3F4" transform="translate(0,0)"/>
<path d="" fill="#EBECE9" transform="translate(0,0)"/>
<path d="" fill="#F5F5F4" transform="translate(0,0)"/>
<path d="" fill="#F0EDEF" transform="translate(0,0)"/>
<path d="" fill="#F5F7F6" transform="translate(0,0)"/>
<path d="" fill="#ECEDEA" transform="translate(0,0)"/>
<path d="" fill="#F5F3F7" transform="translate(0,0)"/>
<path d="" fill="#F1F2F4" transform="translate(0,0)"/>
<path d="" fill="#F5F8F4" transform="translate(0,0)"/>
<path d="" fill="#F1F2F0" transform="translate(0,0)"/>
<path d="" fill="#ECEEED" transform="translate(0,0)"/>
<path d="" fill="#F3F5F4" transform="translate(0,0)"/>
<path d="" fill="#F2F5F3" transform="translate(0,0)"/>
<path d="" fill="#EEF2F4" transform="translate(0,0)"/>
<path d="" fill="#F3F0F1" transform="translate(0,0)"/>
<path d="" fill="#F2F1F1" transform="translate(0,0)"/>
<path d="" fill="#797A79" transform="translate(0,0)"/>
<path d="" fill="#98989A" transform="translate(0,0)"/>
<path d="" fill="#F8F6F8" transform="translate(0,0)"/>
<path d="" fill="#FCF5F6" transform="translate(0,0)"/>
<path d="" fill="#ECECEB" transform="translate(0,0)"/>
<path d="" fill="#F0F3EE" transform="translate(0,0)"/>
<path d="" fill="#F0F2F1" transform="translate(0,0)"/>
<path d="" fill="#EDEBEE" transform="translate(0,0)"/>
<path d="" fill="#F2F3EF" transform="translate(0,0)"/>
<path d="" fill="#F0F0F0" transform="translate(0,0)"/>
<path d="" fill="#EEEEEF" transform="translate(0,0)"/>
<path d="" fill="#F4F8F6" transform="translate(0,0)"/>
<path d="" fill="#E8E9E8" transform="translate(0,0)"/>
<path d="" fill="#F1F2F2" transform="translate(0,0)"/>
<path d="" fill="#EEEEF1" transform="translate(0,0)"/>
<path d="" fill="#E6E9E8" transform="translate(0,0)"/>
<path d="" fill="#EFEDF0" transform="translate(0,0)"/>
<path d="" fill="#EFEEED" transform="translate(0,0)"/>
<path d="" fill="#ECEDF0" transform="translate(0,0)"/>
<path d="" fill="#F2F8F7" transform="translate(0,0)"/>
<path d="" fill="#F0EFF0" transform="translate(0,0)"/>
<path d="" fill="#F9F9F7" transform="translate(0,0)"/>
<path d="" fill="#F8F2F4" transform="translate(0,0)"/>
<path d="" fill="#F2F5F6" transform="translate(0,0)"/>
<path d="" fill="#F2F4F2" transform="translate(0,0)"/>
<path d="" fill="#F6F4F4" transform="translate(0,0)"/>
<path d="" fill="#737374" transform="translate(0,0)"/>
<path d="" fill="#F8F7F5" transform="translate(0,0)"/>
<path d="" fill="#EEF1F0" transform="translate(0,0)"/>
<path d="" fill="#F3F2F4" transform="translate(0,0)"/>
<path d="" fill="#F7F4F7" transform="translate(0,0)"/>
<path d="" fill="#EEEAEB" transform="translate(0,0)"/>
<path d="" fill="#F5F5F5" transform="translate(0,0)"/>
<path d="" fill="#F7F7F6" transform="translate(0,0)"/>
<path d="" fill="#F6F8F7" transform="translate(0,0)"/>
<path d="" fill="#EDEDEE" transform="translate(0,0)"/>
<path d="" fill="#EAEDEC" transform="translate(0,0)"/>
<path d="" fill="#F2F2F7" transform="translate(0,0)"/>
<path d="" fill="#F4F4F3" transform="translate(0,0)"/>
<path d="" fill="#F4F3F2" transform="translate(0,0)"/>
<path d="" fill="#7A7A7B" transform="translate(0,0)"/>
<path d="" fill="#F3F5F2" transform="translate(0,0)"/>
<path d="" fill="#F3F6F6" transform="translate(0,0)"/>
<path d="" fill="#F3F2F2" transform="translate(0,0)"/>
<path d="" fill="#868685" transform="translate(0,0)"/>
<path d="" fill="#F3F2F4" transform="translate(0,0)"/>
<path d="" fill="#F2F5F4" transform="translate(0,0)"/>
<path d="" fill="#F7F7F5" transform="translate(0,0)"/>
<path d="" fill="#EBEAEA" transform="translate(0,0)"/>
<path d="" fill="#F6F4F4" transform="translate(0,0)"/>
<path d="" fill="#E9E9E9" transform="translate(0,0)"/>
<path d="" fill="#F2F5F5" transform="translate(0,0)"/>
<path d="" fill="#F6F5F3" transform="translate(0,0)"/>
<path d="" fill="#F2F6F2" transform="translate(0,0)"/>
<path d="" fill="#F5F5F7" transform="translate(0,0)"/>
<path d="" fill="#F5F4F3" transform="translate(0,0)"/>
<path d="" fill="#F3F3F0" transform="translate(0,0)"/>
<path d="" fill="#F1F3F4" transform="translate(0,0)"/>
<path d="" fill="#F3F5F8" transform="translate(0,0)"/>
<path d="" fill="#EAEAEA" transform="translate(0,0)"/>
<path d="" fill="#F4F4F2" transform="translate(0,0)"/>
<path d="" fill="#FBFBF8" transform="translate(0,0)"/>
<path d="" fill="#E9E9E9" transform="translate(0,0)"/>
<path d="" fill="#F5F3F5" transform="translate(0,0)"/>
<path d="" fill="#EFF0F1" transform="translate(0,0)"/>
<path d="" fill="#EEF0EE" transform="translate(0,0)"/>
<path d="" fill="#F3F2F3" transform="translate(0,0)"/>
<path d="" fill="#EFF4F7" transform="translate(0,0)"/>
<path d="" fill="#F3F7F8" transform="translate(0,0)"/>
<path d="" fill="#EFEFF2" transform="translate(0,0)"/>
<path d="" fill="#EFF3F4" transform="translate(0,0)"/>
<path d="" fill="#F3F2F6" transform="translate(0,0)"/>
<path d="" fill="#F3F0F1" transform="translate(0,0)"/>
<path d="" fill="#F4F2F9" transform="translate(0,0)"/>
<path d="" fill="#F4F3F4" transform="translate(0,0)"/>
<path d="" fill="#F4F5F6" transform="translate(0,0)"/>
<path d="" fill="#F4F4F2" transform="translate(0,0)"/>
<path d="" fill="#F2F4F5" transform="translate(0,0)"/>
<path d="" fill="#ECECED" transform="translate(0,0)"/>
<path d="" fill="#F4F5F5" transform="translate(0,0)"/>
<path d="" fill="#F3F4F5" transform="translate(0,0)"/>
<path d="" fill="#EFEFF0" transform="translate(0,0)"/>
<path d="" fill="#F4F4F4" transform="translate(0,0)"/>
<path d="" fill="#E9E9EA" transform="translate(0,0)"/>
<path d="" fill="#6F6F71" transform="translate(0,0)"/>
<path d="" fill="#787A7A" transform="translate(0,0)"/>
<path d="" fill="#E9E9EA" transform="translate(0,0)"/>
<path d="" fill="#7F807F" transform="translate(0,0)"/>
<path d="" fill="#EEECEF" transform="translate(0,0)"/>
<path d="" fill="#EEEEEE" transform="translate(0,0)"/>
<path d="" fill="#F4F6F2" transform="translate(0,0)"/>
<path d="" fill="#F6F4F5" transform="translate(0,0)"/>
<path d="" fill="#EEEDEE" transform="translate(0,0)"/>
<path d="" fill="#F0F1F0" transform="translate(0,0)"/>
<path d="" fill="#F5F6F7" transform="translate(0,0)"/>
<path d="" fill="#F3F5F4" transform="translate(0,0)"/>
<path d="" fill="#E8E7E8" transform="translate(0,0)"/>
<path d="" fill="#E7EAE9" transform="translate(0,0)"/>
<path d="" fill="#EBECEC" transform="translate(0,0)"/>
<path d="" fill="#68696A" transform="translate(0,0)"/>
<path d="" fill="#E9ECEB" transform="translate(0,0)"/>
<path d="" fill="#888987" transform="translate(0,0)"/>
<path d="" fill="#E9E8E8" transform="translate(0,0)"/>
<path d="" fill="#7F7F81" transform="translate(0,0)"/>
<path d="" fill="#F1F5F3" transform="translate(0,0)"/>
<path d="" fill="#F4F1F3" transform="translate(0,0)"/>
<path d="" fill="#F1F1EF" transform="translate(0,0)"/>
<path d="" fill="#ECEFED" transform="translate(0,0)"/>
<path d="" fill="#F3F3F1" transform="translate(0,0)"/>
<path d="" fill="#616261" transform="translate(0,0)"/>
<path d="" fill="#E8E8E5" transform="translate(0,0)"/>
<path d="" fill="#EEEDEF" transform="translate(0,0)"/>
<path d="" fill="#6A6A6A" transform="translate(0,0)"/>
<path d="" fill="#6D6E6D" transform="translate(0,0)"/>
<path d="" fill="#737273" transform="translate(0,0)"/>
<path d="" fill="#EDF1EF" transform="translate(0,0)"/>
<path d="" fill="#ECEDED" transform="translate(0,0)"/>
<path d="" fill="#E6E4E4" transform="translate(0,0)"/>
<path d="" fill="#717273" transform="translate(0,0)"/>
<path d="" fill="#EAEAE9" transform="translate(0,0)"/>
<path d="" fill="#E6E7E7" transform="translate(0,0)"/>
<path d="" fill="#747274" transform="translate(0,0)"/>
<path d="" fill="#E8E8E9" transform="translate(0,0)"/>
<path d="" fill="#E9E9E8" transform="translate(0,0)"/>
<path d="" fill="#E8E9E8" transform="translate(0,0)"/>
<path d="" fill="#F9F5F6" transform="translate(0,0)"/>
<path d="" fill="#E9EDEC" transform="translate(0,0)"/>
<path d="" fill="#E0E4E7" transform="translate(0,0)"/>
<path d="" fill="#F2F4F6" transform="translate(0,0)"/>
<path d="" fill="#EAEBEB" transform="translate(0,0)"/>
<path d="" fill="#E9E9EA" transform="translate(0,0)"/>
<path d="" fill="#F6F4F9" transform="translate(0,0)"/>
<path d="" fill="#EEEFEE" transform="translate(0,0)"/>
<path d="" fill="#F4F6F6" transform="translate(0,0)"/>
<path d="" fill="#6D6D6F" transform="translate(0,0)"/>
<path d="" fill="#EDECEB" transform="translate(0,0)"/>
<path d="" fill="#E7E7E5" transform="translate(0,0)"/>
<path d="" fill="#EAEDEA" transform="translate(0,0)"/>
<path d="" fill="#EDECEC" transform="translate(0,0)"/>
<path d="" fill="#EEEEEE" transform="translate(0,0)"/>
<path d="" fill="#F1F1F2" transform="translate(0,0)"/>
<path d="" fill="#F1F3F3" transform="translate(0,0)"/>
<path d="" fill="#F1F3F2" transform="translate(0,0)"/>
<path d="" fill="#EFF1F0" transform="translate(0,0)"/>
<path d="" fill="#F0F1F4" transform="translate(0,0)"/>
<path d="" fill="#ECEDEE" transform="translate(0,0)"/>
<path d="" fill="#EEEEED" transform="translate(0,0)"/>
<path d="" fill="#EBEDEC" transform="translate(0,0)"/>
<path d="" fill="#E8E9EE" transform="translate(0,0)"/>
<path d="" fill="#EBEBEA" transform="translate(0,0)"/>
<path d="" fill="#F1EEF0" transform="translate(0,0)"/>
<path d="" fill="#E8ECEB" transform="translate(0,0)"/>
<path d="" fill="#6B6C6C" transform="translate(0,0)"/>
<path d="" fill="#EEEDEE" transform="translate(0,0)"/>
<path d="" fill="#F3F2F3" transform="translate(0,0)"/>
<path d="" fill="#E7E7E8" transform="translate(0,0)"/>
<path d="" fill="#ECECEF" transform="translate(0,0)"/>
<path d="" fill="#EEEDEC" transform="translate(0,0)"/>
<path d="" fill="#E8E9EC" transform="translate(0,0)"/>
<path d="" fill="#EBECEA" transform="translate(0,0)"/>
<path d="" fill="#E8E9E8" transform="translate(0,0)"/>
<path d="" fill="#666766" transform="translate(0,0)"/>
<path d="" fill="#F0EEEE" transform="translate(0,0)"/>
<path d="" fill="#E9EAEC" transform="translate(0,0)"/>
<path d="" fill="#616464" transform="translate(0,0)"/>
<path d="" fill="#E9E9EB" transform="translate(0,0)"/>
<path d="" fill="#E5E5E4" transform="translate(0,0)"/>
<path d="" fill="#E3E9E7" transform="translate(0,0)"/>
<path d="" fill="#E8EAEA" transform="translate(0,0)"/>
<path d="" fill="#E6E6E7" transform="translate(0,0)"/>
<path d="" fill="#E4E7E7" transform="translate(0,0)"/>
<path d="" fill="#595859" transform="translate(0,0)"/>
<path d="" fill="#5D5F5D" transform="translate(0,0)"/>
<path d="" fill="#5A5A5A" transform="translate(0,0)"/>
<path d="" fill="#616062" transform="translate(0,0)"/>
<path d="" fill="#5B5A59" transform="translate(0,0)"/>
<path d="" fill="#626364" transform="translate(0,0)"/>
<path d="" fill="#686768" transform="translate(0,0)"/>
<path d="" fill="#565354" transform="translate(0,0)"/>
<path d="" fill="#575859" transform="translate(0,0)"/>
<path d="" fill="#7B7A7A" transform="translate(0,0)"/>
<path d="" fill="#595959" transform="translate(0,0)"/>
<path d="" fill="#5B5A5A" transform="translate(0,0)"/>
<path d="" fill="#5B5D5C" transform="translate(0,0)"/>
<path d="" fill="#555555" transform="translate(0,0)"/>
<path d="" fill="#5B5A5A" transform="translate(0,0)"/>
<path d="" fill="#747374" transform="translate(0,0)"/>
<path d="" fill="#898789" transform="translate(0,0)"/>
<path d="" fill="#7A7979" transform="translate(0,0)"/>
<path d="" fill="#565756" transform="translate(0,0)"/>
<path d="" fill="#5B5B5A" transform="translate(0,0)"/>
<path d="" fill="#5D5F5F" transform="translate(0,0)"/>
<path d="" fill="#8C8B8B" transform="translate(0,0)"/>
<path d="" fill="#5C5B5C" transform="translate(0,0)"/>
<path d="" fill="#555657" transform="translate(0,0)"/>
<path d="" fill="#575757" transform="translate(0,0)"/>
<path d="" fill="#5C5D5D" transform="translate(0,0)"/>
<path d="" fill="#545254" transform="translate(0,0)"/>
<path d="" fill="#585958" transform="translate(0,0)"/>
<path d="" fill="#5A5A5A" transform="translate(0,0)"/>
<path d="" fill="#666666" transform="translate(0,0)"/>
<path d="" fill="#7C7D7D" transform="translate(0,0)"/>
<path d="" fill="#878887" transform="translate(0,0)"/>
<path d="" fill="#5B5B5B" transform="translate(0,0)"/>
<path d="" fill="#606160" transform="translate(0,0)"/>
<path d="" fill="#595A5A" transform="translate(0,0)"/>
<path d="" fill="#555657" transform="translate(0,0)"/>
<path d="" fill="#5A595A" transform="translate(0,0)"/>
<path d="" fill="#5D5C5D" transform="translate(0,0)"/>
<path d="" fill="#636364" transform="translate(0,0)"/>
<path d="" fill="#818180" transform="translate(0,0)"/>
<path d="" fill="#6C6C6C" transform="translate(0,0)"/>
<path d="" fill="#5D5E5F" transform="translate(0,0)"/>
<path d="" fill="#575858" transform="translate(0,0)"/>
</svg>
